<?xml version="1.0" encoding="UTF-8" standalone="no"?>
<!DOCTYPE svg PUBLIC "-//W3C//DTD SVG 1.1//EN" "http://www.w3.org/Graphics/SVG/1.1/DTD/svg11.dtd">
<svg xmlns="http://www.w3.org/2000/svg" version="1.1" viewBox="0 0 992 1786">
<g stroke-width="2.00" fill="none" stroke-linecap="butt">
<path stroke="#bfe29e" vector-effect="non-scaling-stroke" d="
  M 357.79 255.75
  C 360.24 222.92 358.98 189.48 358.73 156.56
  C 358.68 150.53 360.12 144.76 354.37 140.85
  C 336.20 128.47 316.40 117.95 297.07 107.52
  C 291.60 104.57 286.05 100.80 280.43 97.57
  C 254.51 82.65 227.79 65.95 202.25 53.19
  C 197.85 51.00 195.51 50.85 191.49 53.50
  Q 185.97 57.13 161.71 70.59
  C 160.43 71.31 159.26 72.51 157.77 73.21
  C 148.55 77.50 139.23 83.00 130.46 88.19
  C 116.01 96.74 101.30 104.49 86.79 113.28
  C 73.00 121.63 58.78 129.07 45.10 137.56
  C 36.32 143.02 37.79 146.26 37.35 155.37
  C 37.13 159.86 36.85 164.30 36.86 168.74
  Q 37.01 237.69 37.14 306.65
  Q 37.15 310.24 36.57 315.68
  C 36.07 320.50 35.09 328.12 39.79 331.14
  C 46.52 335.46 54.29 339.10 60.55 342.94
  C 74.88 351.73 90.28 359.81 104.15 368.07
  C 131.61 384.44 158.70 401.01 187.00 415.96"
/>
<path stroke="#cde8ac" vector-effect="non-scaling-stroke" d="
  M 187.00 415.96
  C 183.87 416.87 185.05 419.09 184.98 421.17
  Q 184.39 438.14 184.82 468.74
  C 184.95 477.36 187.89 480.87 195.54 484.90
  C 201.66 488.13 207.64 491.01 213.60 494.75
  Q 228.25 503.96 243.69 511.85
  A 1.05 1.05 0.0 0 1 244.12 512.28
  Q 246.22 516.37 250.83 515.19"
/>
<path stroke="#bfe29e" vector-effect="non-scaling-stroke" d="
  M 250.83 515.19
  Q 244.64 518.41 217.56 533.81
  C 180.14 555.10 143.06 577.02 105.58 598.20
  Q 73.53 616.32 40.75 635.98
  Q 38.85 637.12 38.90 639.33
  Q 39.35 659.15 39.29 680.31
  Q 38.82 845.90 39.19 1011.50
  C 39.20 1015.55 40.83 1017.70 43.93 1019.83
  Q 51.71 1025.18 59.95 1029.78
  Q 88.34 1045.65 116.22 1062.37
  C 120.01 1064.64 123.81 1066.37 126.62 1062.05
  A 1.01 1.00 32.3 0 0 126.30 1060.65
  C 114.58 1053.45 99.99 1045.58 90.67 1040.17
  Q 75.13 1031.15 59.65 1022.01
  C 55.73 1019.70 51.10 1017.50 47.03 1015.13
  Q 45.12 1014.02 45.22 1011.82
  Q 45.76 999.88 45.78 989.00
  Q 46.05 831.03 45.75 673.06
  Q 45.72 656.42 46.15 640.11
  A 1.01 0.99 -13.9 0 1 46.68 639.25
  C 59.53 632.53 72.02 624.69 84.09 618.03
  C 95.68 611.63 108.73 603.64 118.40 598.11
  Q 153.40 578.09 188.39 558.05
  C 211.50 544.80 234.05 530.68 257.25 517.54"
/>
<path stroke="#cde8ac" vector-effect="non-scaling-stroke" d="
  M 257.25 517.54
  Q 257.06 519.45 257.93 521.08
  A 0.96 0.94 86.9 0 0 258.40 521.51
  Q 262.66 523.45 273.97 529.75
  Q 299.02 543.72 308.03 548.88
  C 312.22 551.28 317.68 555.29 322.97 557.71
  A 0.98 0.97 47.0 0 0 323.74 557.74
  Q 330.92 555.10 337.48 551.21
  Q 371.05 531.27 405.03 512.01
  Q 416.28 505.64 431.58 496.10
  A 1.01 0.94 -8.0 0 0 432.00 495.58
  C 432.75 493.37 434.10 492.61 434.00 489.54"
/>
<path stroke="#bfe29e" vector-effect="non-scaling-stroke" d="
  M 434.00 489.54
  L 493.47 524.10
  A 1.01 0.99 14.6 0 1 493.96 524.92
  Q 494.13 528.42 491.58 530.37
  Q 481.85 537.85 468.30 542.79
  C 464.50 544.18 465.00 547.02 465.02 550.35
  C 465.29 605.46 465.70 656.85 465.40 691.06
  Q 465.18 716.12 465.65 734.44
  C 465.75 738.47 466.30 740.10 470.10 742.03
  Q 476.11 745.07 481.86 748.54
  C 488.15 752.33 495.62 756.18 502.80 760.70
  Q 510.80 765.73 545.47 785.24
  Q 547.85 786.58 548.90 789.07
  A 1.00 0.99 -26.3 0 1 548.47 790.32
  Q 521.29 805.96 494.17 821.71
  C 489.02 824.70 482.78 829.09 476.88 832.34
  C 462.89 840.04 449.13 848.11 435.24 855.98
  Q 431.81 857.93 429.43 860.91
  C 427.20 863.71 427.52 868.97 427.46 872.43
  C 427.40 876.18 428.94 879.89 428.55 884.11
  C 427.65 893.68 428.00 903.12 428.88 912.68
  Q 429.13 915.38 428.77 929.11
  C 428.72 931.29 427.66 933.14 427.77 935.57
  C 428.11 942.91 427.42 950.82 427.59 957.46
  Q 427.89 969.94 428.02 988.50
  Q 428.03 990.73 427.82 992.53
  C 427.45 995.75 428.48 998.48 427.55 1001.83
  A 0.94 0.89 46.8 0 0 427.55 1002.36
  Q 428.58 1006.17 427.53 1010.00
  Q 427.46 1010.25 427.52 1010.50
  Q 428.26 1013.53 427.80 1018.34
  Q 427.79 1018.44 427.81 1018.55
  Q 428.33 1023.09 427.54 1026.47
  A 1.05 1.02 -48.1 0 0 427.56 1027.00
  C 428.58 1030.25 427.47 1033.07 427.69 1036.12
  C 427.90 1039.00 427.53 1041.34 427.85 1044.55
  Q 428.00 1046.08 427.76 1048.25
  Q 426.62 1058.54 427.09 1073.46
  C 427.33 1080.69 425.72 1091.47 433.24 1095.77
  Q 450.82 1105.83 468.37 1115.92
  Q 472.52 1118.31 474.25 1118.73
  C 476.63 1119.30 477.05 1120.46 478.52 1121.32
  Q 486.69 1126.08 494.79 1130.95
  Q 496.62 1132.05 494.61 1132.75
  Q 493.67 1133.08 492.71 1133.29
  Q 491.34 1133.59 490.40 1134.06
  C 473.56 1142.66 456.95 1151.11 440.52 1161.03
  C 422.36 1172.00 402.17 1183.21 382.82 1194.07
  Q 379.98 1195.66 370.82 1201.93
  A 1.03 1.01 43.0 0 1 369.73 1201.96
  Q 358.84 1195.34 347.71 1189.13
  C 333.41 1181.15 319.82 1172.91 305.69 1165.12
  Q 297.19 1160.44 288.49 1154.96
  C 260.51 1137.35 231.57 1123.42 203.07 1105.10
  Q 202.89 1104.98 200.45 1102.82
  Q 199.05 1101.57 197.06 1101.40"
/>
<path stroke="#cde8ac" vector-effect="non-scaling-stroke" d="
  M 197.06 1101.40
  Q 197.27 1099.50 195.29 1098.75
  C 189.46 1096.54 183.26 1092.91 176.88 1091.03
  Q 172.81 1089.83 168.72 1088.64
  C 167.15 1088.18 165.91 1086.94 164.11 1086.55
  A 1.01 1.00 -3.0 0 1 163.36 1085.88
  L 162.29 1082.50"
/>
<path stroke="#d5ebb8" vector-effect="non-scaling-stroke" d="
  M 162.29 1082.50
  C 162.25 1057.36 162.54 1032.21 161.77 1007.07
  Q 161.41 995.49 161.87 983.91
  C 161.99 980.90 161.64 976.32 162.18 972.46
  A 0.98 0.98 0.0 0 1 162.94 971.63
  C 169.27 970.18 176.03 964.24 182.23 961.15
  C 191.04 956.76 200.80 950.34 207.71 946.44
  Q 240.83 927.75 273.47 908.23
  C 276.80 906.24 278.74 902.89 283.70 904.62
  Q 285.94 905.40 287.97 906.63
  C 306.94 918.08 326.27 928.81 345.13 940.40
  Q 357.32 947.89 370.75 954.81
  A 1.02 1.00 -47.4 0 0 371.75 954.76
  C 382.70 947.70 394.50 941.49 405.09 935.07
  Q 415.17 928.97 425.80 923.32
  A 1.02 1.00 -8.3 0 0 426.30 922.66
  L 426.64 921.19
  A 1.00 1.00 0.0 0 0 425.41 920.00
  Q 423.37 920.52 421.63 921.63
  Q 418.00 923.95 417.74 924.09
  Q 399.43 933.39 381.90 944.09
  Q 376.32 947.49 371.00 949.66
  A 0.98 0.97 46.8 0 1 370.17 949.63
  C 361.73 945.39 353.49 941.42 345.30 936.39
  Q 323.78 923.16 299.95 910.28
  C 292.64 906.33 285.37 900.71 277.53 897.34
  Q 270.05 894.13 263.56 889.07
  A 1.00 1.00 0.0 0 1 263.18 888.21
  Q 263.86 878.26 263.90 868.00
  C 264.04 834.08 264.42 800.14 263.20 766.23
  A 0.99 0.98 -16.1 0 1 263.71 765.32
  Q 272.12 760.66 280.69 754.95
  Q 288.90 749.49 323.46 730.38
  Q 340.10 721.19 356.61 711.77
  C 362.47 708.42 367.60 701.64 375.04 705.96
  C 386.88 712.85 398.09 719.13 410.59 726.56
  Q 417.42 730.61 424.41 734.38
  C 432.63 738.80 441.46 744.17 450.27 748.60
  C 458.65 752.82 466.23 758.47 474.53 762.98
  C 476.96 764.30 478.11 765.56 478.09 768.54
  Q 477.85 796.40 478.40 827.49
  A 1.00 1.00 0.0 0 0 479.91 828.33
  L 481.06 827.65
  A 1.01 1.00 69.2 0 0 481.53 826.60
  Q 481.18 824.80 481.15 823.00
  Q 480.56 794.59 480.94 766.19
  C 480.98 763.68 480.41 761.57 478.06 760.66
  C 474.70 759.35 472.78 758.00 469.96 756.37
  C 446.46 742.74 423.08 728.85 399.45 715.44
  Q 385.60 707.58 378.29 702.69
  Q 370.91 697.76 363.48 702.71
  C 355.70 707.89 345.33 713.25 338.61 717.22
  C 318.92 728.81 299.14 741.21 278.74 751.47
  C 274.95 753.38 269.48 758.16 263.83 761.28
  Q 261.75 762.43 259.89 763.94
  A 1.03 1.00 70.3 0 0 259.52 764.75
  Q 259.83 776.31 259.26 800.00
  Q 258.84 817.52 259.52 866.84
  C 259.60 872.82 260.25 882.06 259.56 889.75
  A 1.01 1.01 0.0 0 0 260.00 890.67
  Q 266.13 894.81 272.68 898.21
  Q 273.86 898.83 274.45 899.67
  Q 274.95 900.38 275.32 901.17
  A 1.01 1.00 68.6 0 1 274.73 902.54
  Q 267.03 905.12 263.30 907.29
  C 245.28 917.78 227.10 928.00 209.19 938.68
  C 197.94 945.40 186.10 951.15 175.17 958.37
  C 168.89 962.53 163.15 964.16 157.36 967.37
  A 0.97 0.97 0.0 0 0 156.91 967.88
  C 155.35 971.95 155.90 978.06 155.94 982.50
  C 156.25 1015.73 155.12 1041.50 155.78 1082.25"
/>
<path stroke="#cde8ac" vector-effect="non-scaling-stroke" d="
  M 155.78 1082.25
  C 155.57 1086.00 145.34 1079.48 141.66 1077.10
  Q 137.35 1074.30 124.95 1066.79
  Q 123.63 1065.99 119.84 1065.31
  A 1.02 1.01 26.0 0 0 118.93 1065.62
  Q 116.30 1068.48 115.30 1069.05
  Q 88.94 1084.11 62.74 1099.48
  C 60.16 1101.00 59.69 1102.07 59.41 1104.94
  Q 58.59 1113.19 58.55 1115.75
  Q 58.05 1148.22 58.62 1180.03
  Q 58.66 1182.37 60.61 1183.66
  C 82.54 1198.17 104.90 1208.35 115.06 1215.45
  Q 121.05 1219.63 126.84 1222.41
  A 1.01 1.00 -45.3 0 0 127.72 1222.40
  Q 140.17 1216.15 150.42 1209.07
  C 152.43 1207.69 154.44 1207.51 155.21 1210.25"
/>
<path stroke="#d5ebb8" vector-effect="non-scaling-stroke" d="
  M 155.21 1210.25
  C 155.36 1214.56 156.29 1219.61 160.55 1221.92
  Q 177.38 1231.08 193.77 1240.98
  C 210.05 1250.82 226.34 1259.78 242.70 1269.03
  Q 256.07 1276.59 261.20 1280.02"
/>
<path stroke="#cde8ac" vector-effect="non-scaling-stroke" d="
  M 261.20 1280.02
  Q 233.62 1296.44 205.74 1312.39
  C 201.61 1314.75 196.09 1318.45 190.90 1321.11
  C 181.13 1326.12 172.56 1331.70 163.01 1336.42
  C 158.04 1338.88 148.83 1343.15 149.13 1349.68
  C 149.60 1359.92 149.01 1372.92 149.01 1381.78
  Q 148.99 1440.40 149.00 1499.03
  C 149.00 1504.11 147.87 1508.07 153.05 1511.19
  C 158.17 1514.27 166.15 1518.14 172.61 1522.07
  Q 191.86 1533.81 211.71 1544.49
  C 213.72 1545.58 214.57 1546.50 217.23 1547.29
  C 220.69 1548.31 225.18 1552.40 227.81 1554.03
  Q 232.80 1557.14 238.13 1559.65
  A 1.05 0.98 46.9 0 0 238.87 1559.70
  L 240.62 1559.12
  Q 242.27 1558.58 240.97 1557.42
  Q 238.53 1555.26 234.45 1553.03
  C 229.45 1550.29 224.19 1547.90 219.44 1544.93
  C 204.08 1535.33 188.10 1527.05 172.64 1517.67
  Q 160.65 1510.40 157.54 1509.01
  Q 153.95 1507.42 153.83 1502.77
  Q 153.47 1488.58 153.66 1466.50
  Q 154.15 1408.00 153.00 1349.49
  Q 152.94 1346.70 155.16 1345.01
  C 162.36 1339.52 171.04 1336.41 178.84 1331.63
  C 197.62 1320.15 216.57 1308.38 235.91 1297.89
  Q 248.86 1290.86 261.39 1283.13
  C 263.92 1281.57 265.18 1281.71 267.54 1283.23
  C 283.71 1293.65 303.75 1303.96 321.64 1315.16
  Q 340.02 1326.68 359.47 1336.36
  Q 359.60 1336.42 362.60 1338.12
  Q 368.44 1341.43 374.80 1338.76"
/>
<path stroke="#d5ebb8" vector-effect="non-scaling-stroke" d="
  M 374.80 1338.76
  Q 383.53 1334.33 391.82 1329.27
  C 400.22 1324.15 401.31 1328.05 408.12 1331.67
  Q 416.46 1336.12 424.23 1341.51
  C 426.58 1343.14 430.59 1344.34 431.83 1346.73
  Q 433.42 1349.81 431.61 1353.49"
/>
<path stroke="#cde8ac" vector-effect="non-scaling-stroke" d="
  M 431.61 1353.49
  Q 432.53 1359.57 431.29 1365.54
  A 1.01 1.01 0.0 0 1 430.57 1366.30
  C 428.02 1367.00 425.72 1368.96 424.13 1369.84
  Q 401.84 1382.22 379.54 1394.58
  Q 373.35 1398.02 369.47 1402.13
  A 1.00 0.99 62.7 0 0 369.21 1402.96
  C 369.86 1407.64 370.31 1412.00 370.28 1416.81
  Q 369.97 1460.72 370.24 1504.84"
/>
<path stroke="#bfe29e" vector-effect="non-scaling-stroke" d="
  M 370.24 1504.84
  Q 361.40 1501.02 354.96 1495.21
  A 1.00 1.00 0.0 0 0 353.79 1495.08
  Q 340.42 1502.82 326.68 1509.82
  C 316.49 1515.01 306.91 1521.55 297.02 1527.02
  Q 279.36 1536.78 250.51 1553.26
  Q 246.95 1555.28 244.65 1557.53
  A 1.00 1.00 0.0 0 0 244.82 1559.10
  Q 256.53 1566.27 268.22 1573.50
  C 275.27 1577.86 284.78 1582.37 292.69 1587.62
  A 1.00 0.99 43.2 0 0 293.84 1587.59
  C 297.19 1585.11 300.05 1582.15 303.62 1580.18
  Q 317.68 1572.40 331.66 1564.48
  C 339.01 1560.32 346.31 1555.98 353.84 1552.13
  Q 358.41 1549.79 362.36 1546.34
  Q 364.22 1544.71 364.01 1547.18
  Q 363.83 1549.36 361.96 1550.76
  Q 354.50 1556.39 345.99 1560.17
  C 342.19 1561.86 338.71 1564.40 335.95 1565.95
  C 322.22 1573.70 312.84 1579.18 301.46 1586.05
  C 296.61 1588.98 293.64 1591.51 289.02 1588.37
  C 284.05 1585.00 278.30 1583.04 273.15 1579.82
  C 269.38 1577.45 266.11 1575.93 262.36 1574.07
  C 255.62 1570.71 249.44 1565.76 242.78 1561.72
  Q 240.87 1560.57 238.65 1560.31
  Q 232.41 1559.59 232.59 1565.61
  C 232.70 1569.46 232.63 1572.40 232.66 1576.51
  Q 233.16 1633.88 232.31 1705.66
  A 1.00 0.99 16.7 0 0 232.78 1706.52
  Q 243.85 1713.45 261.17 1722.83
  C 275.23 1730.44 297.30 1743.12 318.44 1755.60
  Q 330.68 1762.82 343.45 1769.11
  C 352.60 1773.62 358.75 1771.44 367.65 1766.24
  C 376.61 1761.00 386.80 1756.12 394.98 1751.40
  Q 425.18 1734.01 455.56 1716.95
  C 459.30 1714.86 463.08 1712.02 466.87 1709.65
  C 471.70 1706.64 473.89 1704.60 473.95 1699.00
  Q 474.22 1674.77 474.27 1650.48"
/>
<path stroke="#cde8ac" vector-effect="non-scaling-stroke" d="
  M 474.27 1650.48
  Q 501.96 1666.83 529.97 1682.53
  C 534.47 1685.05 536.54 1683.10 541.33 1680.35
  C 593.49 1650.45 645.83 1620.78 697.51 1590.25
  A 1.03 1.00 -15.9 0 0 698.01 1589.38
  Q 697.98 1508.30 698.02 1430.31
  Q 698.02 1426.54 699.13 1418.68
  A 1.03 1.01 -12.7 0 1 699.58 1417.99
  C 701.96 1416.43 705.19 1415.16 707.15 1414.09
  Q 731.80 1400.62 755.90 1386.17
  C 767.97 1378.93 783.01 1372.24 793.98 1364.00
  C 796.73 1361.94 795.75 1355.78 795.75 1352.50
  Q 795.75 1280.75 795.75 1209.01
  C 795.75 1202.06 790.35 1197.73 784.82 1194.63
  Q 760.39 1180.90 736.06 1167.00
  C 730.07 1163.58 724.55 1158.73 717.58 1157.39"
/>
<path stroke="#bfe29e" vector-effect="non-scaling-stroke" d="
  M 717.58 1157.39
  C 720.23 1154.53 723.78 1154.00 726.57 1152.18
  C 741.66 1142.31 758.66 1134.12 775.54 1123.80
  C 792.53 1113.41 810.20 1104.17 827.35 1094.01
  Q 829.45 1092.77 829.45 1089.25
  Q 829.64 993.41 829.55 897.57
  C 829.54 885.33 831.24 870.73 828.27 859.97
  A 1.04 1.01 -82.7 0 0 827.81 859.36
  Q 776.69 830.06 725.87 800.29
  C 721.43 797.69 716.56 795.29 711.92 792.81
  C 709.69 791.62 706.49 789.36 710.41 787.19
  C 728.45 777.24 744.88 769.81 763.32 756.45
  Q 765.10 755.17 767.65 754.42
  C 774.23 752.50 779.29 748.19 785.61 743.42
  C 793.60 737.38 794.50 733.00 794.50 723.13
  C 794.50 664.36 793.42 605.28 794.90 546.55
  Q 794.96 544.02 792.55 543.26
  C 781.08 539.66 769.79 532.48 759.73 525.98
  C 746.98 517.76 736.19 511.97 725.14 505.26"
/>
<path stroke="#cde8ac" vector-effect="non-scaling-stroke" d="
  M 725.14 505.26
  C 726.70 504.88 728.03 504.68 729.42 503.86
  C 752.26 490.45 774.75 476.10 797.97 463.40
  Q 828.80 446.53 858.54 427.68
  A 1.00 0.98 74.1 0 0 859.00 426.84
  L 859.00 167.30
  A 1.01 1.00 17.2 0 0 858.56 166.47
  C 846.64 158.41 838.17 152.79 821.91 144.32
  Q 812.88 139.62 804.48 134.54
  Q 777.08 117.96 749.17 102.25
  C 739.75 96.95 729.24 90.20 719.03 84.52
  C 692.13 69.55 665.78 53.23 642.23 40.52
  Q 633.34 35.72 629.89 33.53
  A 1.01 1.00 -48.5 0 0 628.70 33.61
  C 625.80 36.10 623.19 38.49 619.87 40.46
  Q 587.08 60.04 553.75 78.67
  C 526.74 93.77 500.05 109.47 473.13 124.75
  C 449.58 138.12 426.42 152.26 403.40 166.54
  A 1.00 0.99 74.4 0 0 402.93 167.39
  L 403.30 277.25
  Q 403.31 280.77 400.08 279.20
  Q 395.81 277.11 391.90 274.75
  C 381.74 268.60 370.32 264.90 361.55 256.54
  Q 360.66 255.70 359.48 255.38
  Q 358.34 255.08 357.79 255.75"
/>
<path stroke="#c6e5aa" vector-effect="non-scaling-stroke" d="
  M 725.14 505.26
  Q 713.15 499.49 703.20 493.54
  C 677.81 478.35 654.98 464.01 630.60 452.42
  A 0.99 0.96 -42.8 0 0 629.78 452.40
  Q 616.46 458.02 603.95 465.46
  Q 570.52 485.37 536.98 505.37"
/>
<path stroke="#cde8ac" vector-effect="non-scaling-stroke" d="
  M 536.98 505.37
  C 534.27 504.29 532.84 502.09 530.46 500.81
  Q 500.52 484.78 471.28 467.48
  Q 469.19 466.24 465.38 464.92
  A 1.00 0.99 25.6 0 0 464.21 465.33
  Q 463.18 466.95 464.08 468.98
  C 467.34 476.29 462.20 480.13 456.19 482.43
  Q 453.90 483.31 445.97 489.13"
/>
<path stroke="#c6e5aa" vector-effect="non-scaling-stroke" d="
  M 445.97 489.13
  C 422.23 475.49 398.57 460.99 374.25 448.49
  C 372.19 447.44 369.95 447.06 367.71 448.18
  Q 350.13 456.97 333.23 467.00
  C 318.03 476.03 303.11 484.33 288.39 493.59
  Q 280.97 498.25 272.06 503.02
  Q 261.27 508.78 250.83 515.19"
/>
<path stroke="#c6e5aa" vector-effect="non-scaling-stroke" d="
  M 187.00 415.96
  Q 191.59 419.10 197.00 420.53
  A 0.96 0.95 -49.7 0 0 197.68 420.47
  C 218.43 410.72 237.83 398.41 257.56 386.80
  C 264.61 382.65 270.92 378.34 278.61 374.44
  Q 282.30 372.57 287.76 369.53
  Q 330.66 345.59 343.54 337.53
  Q 350.50 333.19 356.74 328.76
  Q 358.66 327.40 358.48 325.06
  C 357.28 308.86 357.14 291.60 357.21 276.00
  C 357.24 269.18 357.60 262.40 357.79 255.75"
/>
<path stroke="#bfe29e" vector-effect="non-scaling-stroke" d="
  M 445.97 489.13
  Q 475.42 506.24 505.02 523.19
  C 506.14 523.83 507.49 525.16 507.90 522.75
  A 0.99 0.99 0.0 0 1 508.16 522.23
  Q 512.57 517.57 519.96 513.73
  Q 532.11 507.41 536.98 505.37"
/>
<path stroke="#c6e5aa" vector-effect="non-scaling-stroke" d="
  M 717.58 1157.39
  Q 675.24 1180.51 633.92 1205.42
  Q 629.29 1208.21 624.58 1205.68
  C 613.67 1199.82 602.92 1193.08 591.50 1188.27
  A 1.00 0.98 89.0 0 1 590.99 1187.77
  Q 590.21 1186.15 589.71 1185.83
  Q 578.38 1178.45 566.10 1172.71"
/>
<path stroke="#bfe29e" vector-effect="non-scaling-stroke" d="
  M 566.10 1172.71
  Q 559.21 1167.97 551.69 1164.19
  C 536.47 1156.55 522.14 1146.84 507.26 1138.48
  Q 502.35 1135.71 497.11 1133.56
  A 1.01 0.99 42.5 0 0 496.27 1133.59
  Q 479.71 1142.18 464.61 1153.30
  C 459.92 1156.76 454.59 1160.29 449.55 1162.98
  C 432.61 1172.00 415.86 1181.12 399.75 1191.56
  Q 388.89 1198.59 375.05 1205.28
  C 372.03 1206.74 370.53 1208.02 367.15 1206.43
  C 353.55 1199.99 339.27 1190.33 328.67 1183.97
  C 316.29 1176.54 304.72 1168.03 291.53 1162.05
  Q 284.56 1158.89 279.21 1155.98
  C 264.33 1147.88 251.34 1140.95 238.07 1131.69
  Q 234.27 1129.03 223.25 1123.16
  C 216.68 1119.65 208.13 1113.81 199.76 1110.29
  Q 199.05 1109.99 197.10 1107.24"
/>
<path stroke="#c6e5aa" vector-effect="non-scaling-stroke" d="
  M 197.10 1107.24
  L 197.06 1101.40"
/>
<path stroke="#c6e5aa" vector-effect="non-scaling-stroke" d="
  M 434.00 489.54
  C 427.12 485.81 420.23 482.27 413.51 478.18
  C 400.28 470.14 386.64 462.79 373.67 454.33
  Q 371.52 452.92 368.81 452.93
  A 0.96 0.95 26.9 0 0 368.25 453.11
  Q 356.46 461.16 352.07 463.58
  C 330.46 475.46 309.30 488.17 287.45 499.60
  Q 277.36 504.89 268.01 511.46
  C 264.68 513.79 260.79 515.30 257.25 517.54"
/>
<path stroke="#c6e5aa" vector-effect="non-scaling-stroke" d="
  M 474.27 1650.48
  Q 464.09 1643.99 453.56 1638.02
  C 440.47 1630.60 428.27 1622.86 416.26 1616.23
  Q 391.59 1602.58 374.21 1592.19
  C 373.06 1591.51 371.90 1591.09 370.67 1590.52
  A 0.99 0.99 0.0 0 1 370.10 1589.51
  Q 370.62 1584.63 370.54 1581.75
  Q 370.09 1563.50 369.83 1545.24
  C 369.66 1533.44 370.80 1518.34 370.24 1504.84"
/>
<path stroke="#dceec4" vector-effect="non-scaling-stroke" d="
  M 431.61 1353.49
  Q 434.12 1353.54 432.92 1355.25
  Q 432.53 1355.80 433.20 1355.77
  L 433.62 1355.75
  A 0.63 0.63 0.0 0 0 434.23 1355.13
  L 434.29 1352.50"
/>
<path stroke="#cde8ac" vector-effect="non-scaling-stroke" d="
  M 434.29 1352.50
  L 435.08 1361.42
  A 1.00 0.99 -15.1 0 0 436.50 1362.23
  C 439.07 1361.03 441.72 1359.88 444.20 1358.37
  C 464.70 1345.90 490.59 1331.94 515.38 1316.69
  C 518.14 1315.00 519.14 1312.76 517.12 1309.98
  A 1.02 0.98 27.3 0 1 516.93 1309.43
  Q 515.99 1285.06 516.61 1269.94
  Q 516.81 1265.24 515.43 1262.10
  A 0.98 0.98 0.0 0 0 514.58 1261.51
  L 513.75 1261.46"
/>
<path stroke="#dceec4" vector-effect="non-scaling-stroke" d="
  M 513.75 1261.46
  Q 524.08 1254.78 534.92 1249.00
  C 546.42 1242.86 557.25 1236.39 568.05 1229.62
  Q 573.34 1226.30 580.78 1223.51
  C 588.88 1220.47 588.75 1212.16 588.33 1204.15
  C 588.03 1198.18 588.68 1192.33 588.76 1186.32
  A 1.00 0.99 -76.3 0 0 588.21 1185.41
  L 582.15 1182.42
  Q 580.55 1181.63 580.71 1183.40
  C 581.58 1193.08 581.49 1202.62 582.18 1212.45
  Q 582.36 1215.07 580.11 1216.42
  C 563.35 1226.49 546.00 1235.22 529.43 1245.68
  Q 526.69 1247.41 518.49 1251.40"
/>
<path stroke="#cde8ac" vector-effect="non-scaling-stroke" d="
  M 197.10 1107.24
  C 196.89 1132.28 196.64 1157.23 197.05 1182.72
  A 1.02 1.01 -13.2 0 1 196.47 1183.65
  Q 178.53 1191.93 162.29 1203.25"
/>
<path stroke="#cde8ac" vector-effect="non-scaling-stroke" d="
  M 566.10 1172.71
  Q 549.17 1181.59 526.07 1195.56
  Q 519.74 1199.39 516.43 1204.96
  A 1.10 1.03 60.6 0 0 516.29 1205.53
  Q 517.33 1226.10 516.33 1246.67
  A 1.03 1.01 -69.9 0 0 516.71 1247.51
  Q 518.70 1249.06 518.49 1251.40"
/>
<path stroke="#d5ebb8" vector-effect="non-scaling-stroke" d="
  M 518.49 1251.40
  Q 477.34 1275.46 436.11 1299.29
  C 429.62 1303.05 419.43 1308.12 412.43 1312.93
  Q 403.60 1319.00 396.41 1322.15
  Q 393.55 1323.39 392.11 1320.51
  A 0.97 0.97 0.0 0 0 391.72 1320.09
  L 370.46 1307.76"
/>
<path stroke="#cde8ac" vector-effect="non-scaling-stroke" d="
  M 370.46 1307.76
  C 353.76 1295.72 340.13 1288.46 319.90 1277.65
  C 315.96 1275.55 295.30 1261.81 291.53 1263.28
  Q 279.73 1267.86 270.07 1275.60
  A 1.00 0.99 -52.6 0 1 269.05 1275.74
  L 260.50 1272.04"
/>
<path stroke="#d5ebb8" vector-effect="non-scaling-stroke" d="
  M 513.75 1261.46
  Q 485.94 1277.70 457.91 1293.56
  C 442.10 1302.49 426.46 1311.94 410.68 1321.02
  Q 406.94 1323.17 403.27 1325.49
  A 1.00 0.99 43.0 0 0 403.33 1327.21
  Q 413.27 1332.58 423.03 1338.96
  Q 425.83 1340.79 428.41 1341.40
  C 434.62 1342.88 433.87 1347.48 434.29 1352.50"
/>
<path stroke="#dceec4" vector-effect="non-scaling-stroke" d="
  M 374.80 1338.76
  Q 373.00 1337.96 373.71 1336.75"
/>
<path stroke="#d5ebb8" vector-effect="non-scaling-stroke" d="
  M 373.71 1336.75
  C 377.17 1334.83 380.58 1333.42 384.00 1331.21
  Q 388.10 1328.55 392.58 1326.58
  Q 395.62 1325.24 393.11 1323.07
  C 386.98 1317.78 376.69 1313.03 368.56 1310.03"
/>
<path stroke="#dceec4" vector-effect="non-scaling-stroke" d="
  M 368.56 1310.03
  Q 369.37 1308.01 370.46 1307.76"
/>
<path stroke="#dceec4" vector-effect="non-scaling-stroke" d="
  M 162.29 1082.50
  C 161.22 1086.84 162.36 1090.29 162.18 1094.27
  Q 162.00 1098.18 162.00 1098.24
  C 162.37 1133.25 162.02 1168.25 162.29 1203.25"
/>
<path stroke="#d5ebb8" vector-effect="non-scaling-stroke" d="
  M 162.29 1203.25
  C 161.64 1207.00 160.23 1215.36 164.79 1217.23
  Q 167.20 1218.21 169.47 1219.48
  C 183.46 1227.21 198.35 1236.35 211.33 1243.84
  Q 235.87 1258.01 260.50 1272.04"
/>
<path stroke="#dceec4" vector-effect="non-scaling-stroke" d="
  M 260.50 1272.04
  Q 263.49 1275.11 267.53 1276.67
  A 0.96 0.96 0.0 0 1 268.05 1277.13
  Q 269.00 1278.91 267.74 1280.42
  A 1.00 0.97 -65.3 0 1 266.84 1280.77
  L 261.20 1280.02"
/>
<path stroke="#dceec4" vector-effect="non-scaling-stroke" d="
  M 155.21 1210.25
  Q 155.66 1204.72 155.56 1199.18
  C 155.10 1170.82 155.56 1142.37 155.61 1114.01
  C 155.63 1105.96 156.12 1092.85 155.78 1082.25"
/>
<path stroke="#cde8ac" vector-effect="non-scaling-stroke" d="
  M 368.56 1310.03
  Q 343.12 1295.47 317.75 1280.82
  C 311.29 1277.09 302.56 1271.20 293.93 1267.60
  A 1.04 1.04 0.0 0 1 293.41 1267.11
  C 292.52 1265.28 291.60 1266.95 290.85 1267.30
  C 281.92 1271.34 275.62 1273.86 271.04 1278.82
  Q 269.81 1280.15 271.59 1280.48
  C 273.66 1280.87 275.65 1281.21 277.55 1282.27
  Q 307.24 1298.84 336.83 1315.57
  Q 340.53 1317.65 344.42 1320.26
  C 351.86 1325.23 360.12 1329.44 367.09 1334.39
  Q 370.21 1336.62 373.71 1336.75"
/>
<path stroke="#cde8ac" vector-effect="non-scaling-stroke" d="
  M 833.78 592.38
  C 833.53 597.85 835.18 602.43 840.31 605.20
  Q 851.10 611.02 854.00 613.00
  Q 855.91 614.30 860.13 615.38
  A 0.96 0.96 0.0 0 0 860.72 615.35
  C 868.31 612.57 877.95 608.73 884.21 603.56
  Q 885.65 602.37 885.70 600.50
  Q 886.15 585.89 885.61 571.98
  C 885.53 569.93 885.66 568.19 882.80 568.79
  Q 879.62 569.45 878.23 567.78
  Q 874.08 562.80 868.03 560.80
  C 863.47 559.29 860.18 556.11 855.31 559.53
  C 848.44 564.35 840.45 564.93 835.29 571.78
  Q 833.69 573.90 833.75 576.56
  C 833.88 581.90 834.03 587.01 833.78 592.38"
/>
<path stroke="#cde8ac" vector-effect="non-scaling-stroke" d="
  M 287.96 898.88
  A 0.97 0.97 0.0 0 0 288.81 898.78
  C 299.38 892.16 313.07 885.97 321.60 881.18
  Q 345.10 867.99 367.52 853.01
  C 372.35 849.78 376.17 854.36 380.48 856.66
  Q 403.73 869.14 425.95 883.38
  A 1.00 1.00 0.0 0 0 427.49 882.60
  Q 427.65 879.87 426.47 877.54
  A 1.04 1.02 -0.6 0 0 425.99 877.08
  L 417.76 873.30
  A 1.01 1.00 4.2 0 1 417.22 872.68
  C 416.71 871.03 405.94 865.31 403.85 864.14
  Q 400.55 862.29 396.59 859.21
  Q 386.38 851.25 373.91 847.31
  C 370.61 846.27 367.66 847.53 365.16 849.41
  C 357.61 855.08 349.75 857.08 341.89 861.46
  Q 318.72 874.40 296.69 889.19
  C 295.79 889.80 284.68 897.76 287.96 898.88"
/>
<path stroke="#cde8ac" vector-effect="non-scaling-stroke" d="
  M 57.54 1458.86
  C 63.57 1463.91 70.88 1467.65 77.07 1471.61
  C 83.55 1475.76 95.22 1467.05 100.21 1463.86
  C 102.40 1462.46 105.42 1462.44 107.25 1460.93
  A 1.00 0.98 -19.4 0 0 107.61 1460.19
  Q 107.98 1446.74 108.01 1433.72
  C 108.02 1427.00 108.01 1425.44 100.99 1424.22
  Q 96.40 1423.42 94.12 1419.06
  A 0.94 0.94 0.0 0 0 93.70 1418.64
  C 87.20 1415.22 82.10 1412.03 75.28 1416.77
  Q 66.21 1423.06 57.59 1426.56
  A 1.01 1.01 0.0 0 0 57.05 1427.10
  Q 56.44 1428.50 56.17 1431.75
  Q 55.01 1445.29 57.20 1458.26
  A 1.00 0.95 -76.0 0 0 57.54 1458.86"
/>
<path stroke="#cde8ac" vector-effect="non-scaling-stroke" d="
  M 976.03 1614.75
  C 975.64 1596.07 975.56 1577.41 975.30 1558.73
  C 975.18 1550.83 973.30 1545.92 966.52 1542.22
  Q 964.47 1541.10 954.31 1534.94
  Q 929.97 1520.16 904.75 1507.32
  A 1.01 0.99 43.2 0 0 903.81 1507.34
  Q 899.44 1509.81 895.24 1512.52
  C 880.15 1522.23 864.63 1531.20 849.39 1540.65
  Q 844.46 1543.70 839.21 1546.19
  C 836.46 1547.50 835.36 1549.32 835.62 1552.26
  C 837.71 1575.32 836.53 1599.46 836.71 1622.69
  C 836.78 1632.45 843.58 1631.94 849.79 1635.70
  C 860.01 1641.90 870.25 1648.05 880.39 1654.39
  Q 885.33 1657.47 890.44 1660.25
  C 894.02 1662.20 896.46 1665.59 900.58 1666.30
  Q 906.86 1667.38 911.98 1665.03
  Q 933.33 1655.21 959.80 1638.80
  C 968.86 1633.18 976.27 1626.20 976.03 1614.75"
/>
<path stroke="#c6e5aa" vector-effect="non-scaling-stroke" d="
  M 185.49 407.80
  C 187.84 411.30 190.31 412.11 194.50 413.27
  C 197.68 414.16 200.97 412.57 203.48 411.00
  Q 235.28 391.11 268.60 373.91
  C 277.49 369.32 286.17 362.99 294.73 358.25
  C 310.53 349.49 321.14 342.80 336.68 334.36
  C 340.98 332.02 347.20 327.76 353.01 325.22
  A 1.00 0.99 -14.6 0 0 353.61 324.21
  C 353.25 320.47 352.75 316.71 352.75 313.01
  C 352.77 293.91 353.58 272.55 352.48 251.21"
/>
<path stroke="#bfe29e" vector-effect="non-scaling-stroke" d="
  M 352.48 251.21
  C 352.12 223.22 352.62 195.21 352.27 167.20
  Q 352.17 159.59 352.26 151.97
  C 352.30 148.54 351.33 145.91 348.44 144.30
  C 333.17 135.79 319.15 127.04 305.56 119.33
  Q 259.78 93.33 214.51 66.43
  Q 207.43 62.22 199.29 56.88
  Q 197.58 55.76 195.85 56.85
  C 193.81 58.12 191.19 59.20 189.11 60.48
  C 171.86 71.13 153.94 80.60 136.76 91.30
  C 109.21 108.44 82.81 122.51 57.79 137.46
  C 48.37 143.09 39.12 142.30 40.37 156.98
  Q 41.78 173.54 41.63 190.15
  C 41.28 227.08 41.52 264.04 41.44 300.97
  C 41.43 308.15 42.01 315.83 42.22 323.27
  Q 42.28 325.55 44.30 326.61
  C 58.20 333.86 72.58 342.86 85.17 349.97
  C 113.57 366.02 141.67 382.57 170.13 398.52
  Q 172.49 399.85 177.71 403.31
  Q 181.44 405.79 185.49 407.80"
/>
<path stroke="#cde8ac" vector-effect="non-scaling-stroke" d="
  M 352.48 251.21
  Q 341.21 245.33 329.98 239.39
  C 327.11 237.87 323.73 237.13 321.00 238.50
  Q 296.16 250.94 266.69 269.20
  Q 261.28 272.55 253.37 276.56
  C 233.39 286.69 213.59 299.22 196.57 310.02
  C 191.54 313.22 184.18 311.19 184.73 320.02
  Q 184.95 323.56 184.74 339.93
  Q 184.32 373.76 185.49 407.80"
/>
<path stroke="#c6e5aa" vector-effect="non-scaling-stroke" d="
  M 580.11 1174.94
  Q 594.57 1180.83 597.47 1182.76
  Q 610.42 1191.37 624.10 1198.81
  C 629.78 1201.90 632.98 1199.32 637.69 1196.53
  C 661.81 1182.26 686.25 1168.50 710.54 1154.50"
/>
<path stroke="#bfe29e" vector-effect="non-scaling-stroke" d="
  M 710.54 1154.50
  C 714.86 1152.07 718.77 1148.91 722.98 1146.77
  C 729.35 1143.53 735.38 1140.48 741.66 1136.55
  C 753.25 1129.28 766.54 1122.09 777.02 1115.81
  Q 799.83 1102.12 822.80 1089.08
  A 1.00 0.98 75.8 0 0 823.31 1088.21
  Q 822.75 985.38 823.28 882.56
  C 823.30 878.89 824.48 865.50 821.61 863.39
  Q 815.75 859.09 804.55 852.83
  C 782.76 840.64 761.11 828.16 739.46 815.73
  C 729.80 810.19 716.70 801.87 704.57 795.18
  Q 699.75 792.52 698.32 797.00
  C 697.54 799.45 699.79 801.18 700.12 803.36
  C 700.76 807.57 699.21 813.03 698.79 816.74
  C 698.65 818.00 699.21 818.78 699.24 819.75
  C 699.37 823.26 697.22 827.83 697.61 832.38
  Q 698.00 837.02 697.77 841.68
  Q 697.75 841.95 697.88 842.19
  C 701.07 848.45 700.08 855.74 699.96 865.93
  Q 699.94 867.39 700.08 868.09
  Q 700.24 868.88 700.24 869.07
  Q 700.29 913.26 700.22 957.45
  C 700.20 968.56 699.53 984.04 699.81 997.37
  C 699.88 1000.66 701.43 1003.87 700.28 1007.84
  Q 700.22 1008.06 700.26 1008.29
  L 701.64 1016.43
  A 1.00 0.98 -21.3 0 1 701.18 1017.45
  C 676.33 1032.75 650.53 1046.43 625.23 1060.99
  C 617.14 1065.65 609.39 1068.68 601.98 1073.62
  Q 597.65 1076.50 593.24 1079.22
  C 590.98 1080.62 587.68 1080.30 589.12 1076.59
  A 1.05 1.02 85.8 0 1 589.55 1076.08
  C 600.86 1069.46 611.33 1062.71 623.38 1056.14
  C 636.45 1049.01 649.50 1040.14 661.39 1033.22
  C 672.12 1026.97 682.50 1020.31 693.52 1014.56
  A 1.02 1.01 85.7 0 0 694.02 1013.97
  Q 694.49 1012.44 694.45 1009.31
  Q 693.64 956.69 694.02 866.31
  Q 694.05 858.51 694.71 846.33
  Q 695.93 823.44 694.89 801.18
  Q 694.73 797.76 691.51 798.92
  Q 683.25 801.90 676.35 806.88
  C 667.99 812.93 661.64 816.75 653.01 820.42
  Q 650.71 821.39 648.45 823.26
  C 639.67 830.50 629.75 833.52 619.02 827.98
  C 610.14 823.38 592.68 813.46 579.89 805.06
  Q 570.68 799.02 560.50 794.65
  A 1.01 1.00 2.9 0 1 559.95 794.05
  C 559.47 792.60 558.20 792.51 556.94 793.20
  C 531.30 807.31 508.68 821.73 483.92 834.85
  Q 481.41 836.17 479.30 837.48
  Q 459.73 849.58 439.36 860.29
  C 437.08 861.49 435.19 863.27 433.34 864.98
  A 1.01 1.00 -21.2 0 0 433.02 865.69
  Q 432.78 873.56 432.69 881.43
  C 432.66 883.43 431.85 886.14 431.76 888.56
  C 431.32 900.37 431.94 907.43 432.09 913.53
  C 432.20 917.95 433.95 926.91 432.52 930.71
  C 430.61 935.83 433.04 941.43 433.00 946.77
  Q 432.92 956.82 432.78 966.87
  C 432.76 968.14 432.05 968.91 432.29 970.33
  Q 432.66 972.52 432.66 972.60
  C 433.30 998.88 432.62 1025.46 432.09 1051.75
  Q 431.90 1060.92 432.47 1064.01
  Q 433.48 1069.47 433.09 1075.01
  C 432.84 1078.58 433.49 1081.55 434.06 1084.91
  C 434.66 1088.46 436.68 1090.55 439.57 1092.18
  C 458.02 1102.60 475.72 1114.37 494.40 1124.30
  C 505.79 1130.35 517.33 1137.64 529.08 1143.91
  Q 534.49 1146.80 561.41 1162.99
  C 567.44 1166.62 573.81 1171.01 580.11 1174.94"
/>
<path stroke="#cde8ac" vector-effect="non-scaling-stroke" d="
  M 710.54 1154.50
  Q 711.59 1152.91 710.01 1151.94
  Q 688.30 1138.54 661.48 1124.99
  C 657.33 1122.90 656.43 1120.50 651.24 1123.41
  Q 622.74 1139.41 594.75 1156.30
  C 593.26 1157.20 591.12 1157.83 589.45 1158.67
  Q 587.10 1159.84 586.90 1157.22
  C 586.64 1153.86 586.66 1150.53 586.26 1147.19
  C 585.98 1144.81 586.92 1141.69 587.05 1140.18
  C 588.05 1128.46 586.83 1117.19 586.02 1105.50
  C 585.79 1102.09 587.02 1098.37 587.03 1095.14
  C 587.06 1087.20 585.31 1079.05 585.60 1071.71
  C 585.93 1063.66 587.58 1055.60 587.49 1047.82
  Q 587.21 1023.41 587.23 999.00
  C 587.23 992.74 588.58 985.12 588.25 978.01
  C 587.99 972.37 586.53 969.94 582.02 966.99
  Q 570.46 959.44 561.97 954.55
  C 551.79 948.70 543.45 943.27 534.01 937.94
  Q 509.94 924.35 485.84 910.83
  C 479.24 907.12 473.76 902.65 467.62 900.93
  A 1.04 1.02 81.9 0 1 467.03 900.48
  L 466.76 900.02
  A 1.01 1.00 59.2 0 1 467.10 898.65
  L 472.96 895.11
  A 0.99 0.96 -5.3 0 0 473.36 894.64
  Q 474.84 891.14 471.21 891.21
  A 1.05 1.04 -64.6 0 0 470.60 891.43
  C 467.47 893.95 464.66 896.59 461.12 898.58
  Q 447.09 906.48 440.32 912.31
  Q 438.04 914.27 440.93 914.27
  A 1.02 0.97 27.9 0 0 441.46 914.12
  Q 446.41 911.00 451.34 907.88
  C 454.28 906.01 457.80 905.47 460.88 904.25
  Q 463.83 903.08 466.39 904.97
  C 471.20 908.53 475.58 911.70 481.05 914.68
  C 492.03 920.66 503.26 928.27 513.22 933.77
  C 528.92 942.44 545.43 950.64 560.37 960.55
  C 567.43 965.23 572.66 968.09 579.73 970.61
  Q 581.75 971.33 581.78 973.47
  C 582.23 1004.94 581.14 1032.57 582.38 1071.30
  C 582.58 1077.26 583.03 1083.30 582.74 1089.23
  Q 581.24 1119.64 582.21 1150.07
  Q 582.37 1155.19 585.16 1158.58
  A 1.00 1.00 0.0 0 1 585.07 1159.95
  L 578.24 1166.31
  A 0.99 0.98 -23.2 0 0 577.92 1167.10
  L 578.19 1171.68
  A 1.01 0.99 -76.6 0 0 578.68 1172.49
  Q 579.94 1173.22 580.11 1174.94"
/>
<path stroke="#cde8ac" vector-effect="non-scaling-stroke" d="
  M 836.19 585.84
  C 836.01 590.45 834.67 600.16 839.76 602.75
  Q 848.11 606.99 859.34 613.21
  A 1.03 1.02 49.9 0 0 860.15 613.28
  Q 872.40 609.17 883.12 601.92
  A 1.02 1.00 -15.7 0 0 883.56 601.15
  C 883.93 595.50 885.56 575.33 882.51 571.13
  A 1.02 1.00 76.4 0 0 881.88 570.74
  Q 878.66 570.13 877.49 569.00
  C 873.27 564.93 868.97 563.02 864.05 560.62
  C 856.45 556.89 854.85 562.66 849.19 565.18
  C 844.22 567.40 836.94 568.64 835.98 575.47
  C 835.48 579.03 836.31 582.73 836.19 585.84"
/>
<path stroke="#dceec4" vector-effect="non-scaling-stroke" d="
  M 519.94 1363.81
  C 534.10 1374.88 551.26 1382.94 567.05 1391.46
  C 577.84 1397.28 590.29 1405.52 601.45 1411.97
  C 617.16 1421.06 632.35 1430.84 648.71 1438.76
  C 656.63 1442.59 666.95 1436.35 674.52 1432.78
  C 682.45 1429.05 689.69 1423.46 697.30 1418.97
  A 1.01 0.98 -7.6 0 0 697.75 1418.40
  C 699.25 1413.37 699.72 1405.83 696.50 1401.36
  C 694.06 1397.98 689.57 1396.45 686.96 1394.73
  Q 678.06 1388.85 665.77 1381.97
  C 652.19 1374.37 629.07 1360.23 609.21 1349.18
  C 591.55 1339.35 573.49 1329.77 556.64 1318.60
  C 551.26 1315.03 539.10 1306.47 532.57 1307.59
  Q 526.72 1308.60 520.05 1311.94
  A 1.00 0.98 3.3 0 0 519.65 1312.29
  Q 516.47 1317.26 516.53 1319.25
  Q 516.95 1333.47 517.26 1347.69
  C 517.39 1353.62 514.10 1359.25 519.94 1363.81"
/>
<path stroke="#dceec4" vector-effect="non-scaling-stroke" d="
  M 434.81 1506.70
  C 435.21 1506.50 437.70 1505.87 436.68 1504.97
  A 0.67 0.64 61.5 0 0 436.18 1504.81
  C 432.63 1505.20 434.41 1498.57 434.43 1496.44
  Q 434.88 1436.93 434.72 1377.43
  C 434.72 1375.30 434.44 1372.95 434.33 1370.73
  A 1.00 1.00 0.0 0 0 433.33 1369.78
  L 432.99 1369.78
  A 0.81 0.80 0.4 0 0 432.18 1370.57
  C 431.60 1415.48 432.15 1460.41 432.02 1505.34
  A 0.99 0.98 68.8 0 1 431.71 1506.06
  Q 429.40 1508.29 426.69 1509.46
  C 418.21 1513.12 410.16 1518.67 403.35 1522.63
  C 395.78 1527.02 390.02 1531.66 382.55 1535.93
  A 1.02 1.01 81.9 0 0 382.06 1536.59
  C 381.44 1539.42 385.94 1535.95 386.60 1535.64
  C 393.00 1532.57 395.91 1528.35 403.50 1526.43
  C 414.29 1523.70 424.06 1515.73 432.66 1508.90
  Q 433.68 1508.09 434.42 1507.03
  Q 434.57 1506.81 434.81 1506.70"
/>
<path stroke="#cde8ac" vector-effect="non-scaling-stroke" d="
  M 58.58 1456.74
  C 60.48 1459.23 63.26 1461.49 66.15 1463.13
  C 71.18 1465.98 76.08 1469.29 81.10 1471.56
  A 1.01 1.00 -43.4 0 0 81.87 1471.58
  Q 91.06 1468.07 99.06 1462.45
  C 100.98 1461.10 103.04 1461.16 105.17 1460.65
  A 1.01 0.99 -7.3 0 0 105.94 1459.67
  L 105.70 1427.78
  A 1.01 1.00 -2.2 0 0 104.62 1426.79
  C 91.21 1427.78 89.63 1412.87 74.67 1421.43
  Q 67.32 1425.63 59.22 1427.75
  A 1.00 1.00 0.0 0 0 58.47 1428.65
  Q 57.47 1442.42 58.37 1456.20
  A 0.99 0.96 24.7 0 0 58.58 1456.74"
/>
</g>
<path fill="#c6e4a0" d="
  M 0.00 0.00
  L 992.00 0.00
  L 992.00 1786.00
  L 0.00 1786.00
  L 0.00 0.00
  Z
  M 357.79 255.75
  C 360.24 222.92 358.98 189.48 358.73 156.56
  C 358.68 150.53 360.12 144.76 354.37 140.85
  C 336.20 128.47 316.40 117.95 297.07 107.52
  C 291.60 104.57 286.05 100.80 280.43 97.57
  C 254.51 82.65 227.79 65.95 202.25 53.19
  C 197.85 51.00 195.51 50.85 191.49 53.50
  Q 185.97 57.13 161.71 70.59
  C 160.43 71.31 159.26 72.51 157.77 73.21
  C 148.55 77.50 139.23 83.00 130.46 88.19
  C 116.01 96.74 101.30 104.49 86.79 113.28
  C 73.00 121.63 58.78 129.07 45.10 137.56
  C 36.32 143.02 37.79 146.26 37.35 155.37
  C 37.13 159.86 36.85 164.30 36.86 168.74
  Q 37.01 237.69 37.14 306.65
  Q 37.15 310.24 36.57 315.68
  C 36.07 320.50 35.09 328.12 39.79 331.14
  C 46.52 335.46 54.29 339.10 60.55 342.94
  C 74.88 351.73 90.28 359.81 104.15 368.07
  C 131.61 384.44 158.70 401.01 187.00 415.96
  C 183.87 416.87 185.05 419.09 184.98 421.17
  Q 184.39 438.14 184.82 468.74
  C 184.95 477.36 187.89 480.87 195.54 484.90
  C 201.66 488.13 207.64 491.01 213.60 494.75
  Q 228.25 503.96 243.69 511.85
  A 1.05 1.05 0.0 0 1 244.12 512.28
  Q 246.22 516.37 250.83 515.19
  Q 244.64 518.41 217.56 533.81
  C 180.14 555.10 143.06 577.02 105.58 598.20
  Q 73.53 616.32 40.75 635.98
  Q 38.85 637.12 38.90 639.33
  Q 39.35 659.15 39.29 680.31
  Q 38.82 845.90 39.19 1011.50
  C 39.20 1015.55 40.83 1017.70 43.93 1019.83
  Q 51.71 1025.18 59.95 1029.78
  Q 88.34 1045.65 116.22 1062.37
  C 120.01 1064.64 123.81 1066.37 126.62 1062.05
  A 1.01 1.00 32.3 0 0 126.30 1060.65
  C 114.58 1053.45 99.99 1045.58 90.67 1040.17
  Q 75.13 1031.15 59.65 1022.01
  C 55.73 1019.70 51.10 1017.50 47.03 1015.13
  Q 45.12 1014.02 45.22 1011.82
  Q 45.76 999.88 45.78 989.00
  Q 46.05 831.03 45.75 673.06
  Q 45.72 656.42 46.15 640.11
  A 1.01 0.99 -13.9 0 1 46.68 639.25
  C 59.53 632.53 72.02 624.69 84.09 618.03
  C 95.68 611.63 108.73 603.64 118.40 598.11
  Q 153.40 578.09 188.39 558.05
  C 211.50 544.80 234.05 530.68 257.25 517.54
  Q 257.06 519.45 257.93 521.08
  A 0.96 0.94 86.9 0 0 258.40 521.51
  Q 262.66 523.45 273.97 529.75
  Q 299.02 543.72 308.03 548.88
  C 312.22 551.28 317.68 555.29 322.97 557.71
  A 0.98 0.97 47.0 0 0 323.74 557.74
  Q 330.92 555.10 337.48 551.21
  Q 371.05 531.27 405.03 512.01
  Q 416.28 505.64 431.58 496.10
  A 1.01 0.94 -8.0 0 0 432.00 495.58
  C 432.75 493.37 434.10 492.61 434.00 489.54
  L 493.47 524.10
  A 1.01 0.99 14.6 0 1 493.96 524.92
  Q 494.13 528.42 491.58 530.37
  Q 481.85 537.85 468.30 542.79
  C 464.50 544.18 465.00 547.02 465.02 550.35
  C 465.29 605.46 465.70 656.85 465.40 691.06
  Q 465.18 716.12 465.65 734.44
  C 465.75 738.47 466.30 740.10 470.10 742.03
  Q 476.11 745.07 481.86 748.54
  C 488.15 752.33 495.62 756.18 502.80 760.70
  Q 510.80 765.73 545.47 785.24
  Q 547.85 786.58 548.90 789.07
  A 1.00 0.99 -26.3 0 1 548.47 790.32
  Q 521.29 805.96 494.17 821.71
  C 489.02 824.70 482.78 829.09 476.88 832.34
  C 462.89 840.04 449.13 848.11 435.24 855.98
  Q 431.81 857.93 429.43 860.91
  C 427.20 863.71 427.52 868.97 427.46 872.43
  C 427.40 876.18 428.94 879.89 428.55 884.11
  C 427.65 893.68 428.00 903.12 428.88 912.68
  Q 429.13 915.38 428.77 929.11
  C 428.72 931.29 427.66 933.14 427.77 935.57
  C 428.11 942.91 427.42 950.82 427.59 957.46
  Q 427.89 969.94 428.02 988.50
  Q 428.03 990.73 427.82 992.53
  C 427.45 995.75 428.48 998.48 427.55 1001.83
  A 0.94 0.89 46.8 0 0 427.55 1002.36
  Q 428.58 1006.17 427.53 1010.00
  Q 427.46 1010.25 427.52 1010.50
  Q 428.26 1013.53 427.80 1018.34
  Q 427.79 1018.44 427.81 1018.55
  Q 428.33 1023.09 427.54 1026.47
  A 1.05 1.02 -48.1 0 0 427.56 1027.00
  C 428.58 1030.25 427.47 1033.07 427.69 1036.12
  C 427.90 1039.00 427.53 1041.34 427.85 1044.55
  Q 428.00 1046.08 427.76 1048.25
  Q 426.62 1058.54 427.09 1073.46
  C 427.33 1080.69 425.72 1091.47 433.24 1095.77
  Q 450.82 1105.83 468.37 1115.92
  Q 472.52 1118.31 474.25 1118.73
  C 476.63 1119.30 477.05 1120.46 478.52 1121.32
  Q 486.69 1126.08 494.79 1130.95
  Q 496.62 1132.05 494.61 1132.75
  Q 493.67 1133.08 492.71 1133.29
  Q 491.34 1133.59 490.40 1134.06
  C 473.56 1142.66 456.95 1151.11 440.52 1161.03
  C 422.36 1172.00 402.17 1183.21 382.82 1194.07
  Q 379.98 1195.66 370.82 1201.93
  A 1.03 1.01 43.0 0 1 369.73 1201.96
  Q 358.84 1195.34 347.71 1189.13
  C 333.41 1181.15 319.82 1172.91 305.69 1165.12
  Q 297.19 1160.44 288.49 1154.96
  C 260.51 1137.35 231.57 1123.42 203.07 1105.10
  Q 202.89 1104.98 200.45 1102.82
  Q 199.05 1101.57 197.06 1101.40
  Q 197.27 1099.50 195.29 1098.75
  C 189.46 1096.54 183.26 1092.91 176.88 1091.03
  Q 172.81 1089.83 168.72 1088.64
  C 167.15 1088.18 165.91 1086.94 164.11 1086.55
  A 1.01 1.00 -3.0 0 1 163.36 1085.88
  L 162.29 1082.50
  C 162.25 1057.36 162.54 1032.21 161.77 1007.07
  Q 161.41 995.49 161.87 983.91
  C 161.99 980.90 161.64 976.32 162.18 972.46
  A 0.98 0.98 0.0 0 1 162.94 971.63
  C 169.27 970.18 176.03 964.24 182.23 961.15
  C 191.04 956.76 200.80 950.34 207.71 946.44
  Q 240.83 927.75 273.47 908.23
  C 276.80 906.24 278.74 902.89 283.70 904.62
  Q 285.94 905.40 287.97 906.63
  C 306.94 918.08 326.27 928.81 345.13 940.40
  Q 357.32 947.89 370.75 954.81
  A 1.02 1.00 -47.4 0 0 371.75 954.76
  C 382.70 947.70 394.50 941.49 405.09 935.07
  Q 415.17 928.97 425.80 923.32
  A 1.02 1.00 -8.3 0 0 426.30 922.66
  L 426.64 921.19
  A 1.00 1.00 0.0 0 0 425.41 920.00
  Q 423.37 920.52 421.63 921.63
  Q 418.00 923.95 417.74 924.09
  Q 399.43 933.39 381.90 944.09
  Q 376.32 947.49 371.00 949.66
  A 0.98 0.97 46.8 0 1 370.17 949.63
  C 361.73 945.39 353.49 941.42 345.30 936.39
  Q 323.78 923.16 299.95 910.28
  C 292.64 906.33 285.37 900.71 277.53 897.34
  Q 270.05 894.13 263.56 889.07
  A 1.00 1.00 0.0 0 1 263.18 888.21
  Q 263.86 878.26 263.90 868.00
  C 264.04 834.08 264.42 800.14 263.20 766.23
  A 0.99 0.98 -16.1 0 1 263.71 765.32
  Q 272.12 760.66 280.69 754.95
  Q 288.90 749.49 323.46 730.38
  Q 340.10 721.19 356.61 711.77
  C 362.47 708.42 367.60 701.64 375.04 705.96
  C 386.88 712.85 398.09 719.13 410.59 726.56
  Q 417.42 730.61 424.41 734.38
  C 432.63 738.80 441.46 744.17 450.27 748.60
  C 458.65 752.82 466.23 758.47 474.53 762.98
  C 476.96 764.30 478.11 765.56 478.09 768.54
  Q 477.85 796.40 478.40 827.49
  A 1.00 1.00 0.0 0 0 479.91 828.33
  L 481.06 827.65
  A 1.01 1.00 69.2 0 0 481.53 826.60
  Q 481.18 824.80 481.15 823.00
  Q 480.56 794.59 480.94 766.19
  C 480.98 763.68 480.41 761.57 478.06 760.66
  C 474.70 759.35 472.78 758.00 469.96 756.37
  C 446.46 742.74 423.08 728.85 399.45 715.44
  Q 385.60 707.58 378.29 702.69
  Q 370.91 697.76 363.48 702.71
  C 355.70 707.89 345.33 713.25 338.61 717.22
  C 318.92 728.81 299.14 741.21 278.74 751.47
  C 274.95 753.38 269.48 758.16 263.83 761.28
  Q 261.75 762.43 259.89 763.94
  A 1.03 1.00 70.3 0 0 259.52 764.75
  Q 259.83 776.31 259.26 800.00
  Q 258.84 817.52 259.52 866.84
  C 259.60 872.82 260.25 882.06 259.56 889.75
  A 1.01 1.01 0.0 0 0 260.00 890.67
  Q 266.13 894.81 272.68 898.21
  Q 273.86 898.83 274.45 899.67
  Q 274.95 900.38 275.32 901.17
  A 1.01 1.00 68.6 0 1 274.73 902.54
  Q 267.03 905.12 263.30 907.29
  C 245.28 917.78 227.10 928.00 209.19 938.68
  C 197.94 945.40 186.10 951.15 175.17 958.37
  C 168.89 962.53 163.15 964.16 157.36 967.37
  A 0.97 0.97 0.0 0 0 156.91 967.88
  C 155.35 971.95 155.90 978.06 155.94 982.50
  C 156.25 1015.73 155.12 1041.50 155.78 1082.25
  C 155.57 1086.00 145.34 1079.48 141.66 1077.10
  Q 137.35 1074.30 124.95 1066.79
  Q 123.63 1065.99 119.84 1065.31
  A 1.02 1.01 26.0 0 0 118.93 1065.62
  Q 116.30 1068.48 115.30 1069.05
  Q 88.94 1084.11 62.74 1099.48
  C 60.16 1101.00 59.69 1102.07 59.41 1104.94
  Q 58.59 1113.19 58.55 1115.75
  Q 58.05 1148.22 58.62 1180.03
  Q 58.66 1182.37 60.61 1183.66
  C 82.54 1198.17 104.90 1208.35 115.06 1215.45
  Q 121.05 1219.63 126.84 1222.41
  A 1.01 1.00 -45.3 0 0 127.72 1222.40
  Q 140.17 1216.15 150.42 1209.07
  C 152.43 1207.69 154.44 1207.51 155.21 1210.25
  C 155.36 1214.56 156.29 1219.61 160.55 1221.92
  Q 177.38 1231.08 193.77 1240.98
  C 210.05 1250.82 226.34 1259.78 242.70 1269.03
  Q 256.07 1276.59 261.20 1280.02
  Q 233.62 1296.44 205.74 1312.39
  C 201.61 1314.75 196.09 1318.45 190.90 1321.11
  C 181.13 1326.12 172.56 1331.70 163.01 1336.42
  C 158.04 1338.88 148.83 1343.15 149.13 1349.68
  C 149.60 1359.92 149.01 1372.92 149.01 1381.78
  Q 148.99 1440.40 149.00 1499.03
  C 149.00 1504.11 147.87 1508.07 153.05 1511.19
  C 158.17 1514.27 166.15 1518.14 172.61 1522.07
  Q 191.86 1533.81 211.71 1544.49
  C 213.72 1545.58 214.57 1546.50 217.23 1547.29
  C 220.69 1548.31 225.18 1552.40 227.81 1554.03
  Q 232.80 1557.14 238.13 1559.65
  A 1.05 0.98 46.9 0 0 238.87 1559.70
  L 240.62 1559.12
  Q 242.27 1558.58 240.97 1557.42
  Q 238.53 1555.26 234.45 1553.03
  C 229.45 1550.29 224.19 1547.90 219.44 1544.93
  C 204.08 1535.33 188.10 1527.05 172.64 1517.67
  Q 160.65 1510.40 157.54 1509.01
  Q 153.95 1507.42 153.83 1502.77
  Q 153.47 1488.58 153.66 1466.50
  Q 154.15 1408.00 153.00 1349.49
  Q 152.94 1346.70 155.16 1345.01
  C 162.36 1339.52 171.04 1336.41 178.84 1331.63
  C 197.62 1320.15 216.57 1308.38 235.91 1297.89
  Q 248.86 1290.86 261.39 1283.13
  C 263.92 1281.57 265.18 1281.71 267.54 1283.23
  C 283.71 1293.65 303.75 1303.96 321.64 1315.16
  Q 340.02 1326.68 359.47 1336.36
  Q 359.60 1336.42 362.60 1338.12
  Q 368.44 1341.43 374.80 1338.76
  Q 383.53 1334.33 391.82 1329.27
  C 400.22 1324.15 401.31 1328.05 408.12 1331.67
  Q 416.46 1336.12 424.23 1341.51
  C 426.58 1343.14 430.59 1344.34 431.83 1346.73
  Q 433.42 1349.81 431.61 1353.49
  Q 432.53 1359.57 431.29 1365.54
  A 1.01 1.01 0.0 0 1 430.57 1366.30
  C 428.02 1367.00 425.72 1368.96 424.13 1369.84
  Q 401.84 1382.22 379.54 1394.58
  Q 373.35 1398.02 369.47 1402.13
  A 1.00 0.99 62.7 0 0 369.21 1402.96
  C 369.86 1407.64 370.31 1412.00 370.28 1416.81
  Q 369.97 1460.72 370.24 1504.84
  Q 361.40 1501.02 354.96 1495.21
  A 1.00 1.00 0.0 0 0 353.79 1495.08
  Q 340.42 1502.82 326.68 1509.82
  C 316.49 1515.01 306.91 1521.55 297.02 1527.02
  Q 279.36 1536.78 250.51 1553.26
  Q 246.95 1555.28 244.65 1557.53
  A 1.00 1.00 0.0 0 0 244.82 1559.10
  Q 256.53 1566.27 268.22 1573.50
  C 275.27 1577.86 284.78 1582.37 292.69 1587.62
  A 1.00 0.99 43.2 0 0 293.84 1587.59
  C 297.19 1585.11 300.05 1582.15 303.62 1580.18
  Q 317.68 1572.40 331.66 1564.48
  C 339.01 1560.32 346.31 1555.98 353.84 1552.13
  Q 358.41 1549.79 362.36 1546.34
  Q 364.22 1544.71 364.01 1547.18
  Q 363.83 1549.36 361.96 1550.76
  Q 354.50 1556.39 345.99 1560.17
  C 342.19 1561.86 338.71 1564.40 335.95 1565.95
  C 322.22 1573.70 312.84 1579.18 301.46 1586.05
  C 296.61 1588.98 293.64 1591.51 289.02 1588.37
  C 284.05 1585.00 278.30 1583.04 273.15 1579.82
  C 269.38 1577.45 266.11 1575.93 262.36 1574.07
  C 255.62 1570.71 249.44 1565.76 242.78 1561.72
  Q 240.87 1560.57 238.65 1560.31
  Q 232.41 1559.59 232.59 1565.61
  C 232.70 1569.46 232.63 1572.40 232.66 1576.51
  Q 233.16 1633.88 232.31 1705.66
  A 1.00 0.99 16.7 0 0 232.78 1706.52
  Q 243.85 1713.45 261.17 1722.83
  C 275.23 1730.44 297.30 1743.12 318.44 1755.60
  Q 330.68 1762.82 343.45 1769.11
  C 352.60 1773.62 358.75 1771.44 367.65 1766.24
  C 376.61 1761.00 386.80 1756.12 394.98 1751.40
  Q 425.18 1734.01 455.56 1716.95
  C 459.30 1714.86 463.08 1712.02 466.87 1709.65
  C 471.70 1706.64 473.89 1704.60 473.95 1699.00
  Q 474.22 1674.77 474.27 1650.48
  Q 501.96 1666.83 529.97 1682.53
  C 534.47 1685.05 536.54 1683.10 541.33 1680.35
  C 593.49 1650.45 645.83 1620.78 697.51 1590.25
  A 1.03 1.00 -15.9 0 0 698.01 1589.38
  Q 697.98 1508.30 698.02 1430.31
  Q 698.02 1426.54 699.13 1418.68
  A 1.03 1.01 -12.7 0 1 699.58 1417.99
  C 701.96 1416.43 705.19 1415.16 707.15 1414.09
  Q 731.80 1400.62 755.90 1386.17
  C 767.97 1378.93 783.01 1372.24 793.98 1364.00
  C 796.73 1361.94 795.75 1355.78 795.75 1352.50
  Q 795.75 1280.75 795.75 1209.01
  C 795.75 1202.06 790.35 1197.73 784.82 1194.63
  Q 760.39 1180.90 736.06 1167.00
  C 730.07 1163.58 724.55 1158.73 717.58 1157.39
  C 720.23 1154.53 723.78 1154.00 726.57 1152.18
  C 741.66 1142.31 758.66 1134.12 775.54 1123.80
  C 792.53 1113.41 810.20 1104.17 827.35 1094.01
  Q 829.45 1092.77 829.45 1089.25
  Q 829.64 993.41 829.55 897.57
  C 829.54 885.33 831.24 870.73 828.27 859.97
  A 1.04 1.01 -82.7 0 0 827.81 859.36
  Q 776.69 830.06 725.87 800.29
  C 721.43 797.69 716.56 795.29 711.92 792.81
  C 709.69 791.62 706.49 789.36 710.41 787.19
  C 728.45 777.24 744.88 769.81 763.32 756.45
  Q 765.10 755.17 767.65 754.42
  C 774.23 752.50 779.29 748.19 785.61 743.42
  C 793.60 737.38 794.50 733.00 794.50 723.13
  C 794.50 664.36 793.42 605.28 794.90 546.55
  Q 794.96 544.02 792.55 543.26
  C 781.08 539.66 769.79 532.48 759.73 525.98
  C 746.98 517.76 736.19 511.97 725.14 505.26
  C 726.70 504.88 728.03 504.68 729.42 503.86
  C 752.26 490.45 774.75 476.10 797.97 463.40
  Q 828.80 446.53 858.54 427.68
  A 1.00 0.98 74.1 0 0 859.00 426.84
  L 859.00 167.30
  A 1.01 1.00 17.2 0 0 858.56 166.47
  C 846.64 158.41 838.17 152.79 821.91 144.32
  Q 812.88 139.62 804.48 134.54
  Q 777.08 117.96 749.17 102.25
  C 739.75 96.95 729.24 90.20 719.03 84.52
  C 692.13 69.55 665.78 53.23 642.23 40.52
  Q 633.34 35.72 629.89 33.53
  A 1.01 1.00 -48.5 0 0 628.70 33.61
  C 625.80 36.10 623.19 38.49 619.87 40.46
  Q 587.08 60.04 553.75 78.67
  C 526.74 93.77 500.05 109.47 473.13 124.75
  C 449.58 138.12 426.42 152.26 403.40 166.54
  A 1.00 0.99 74.4 0 0 402.93 167.39
  L 403.30 277.25
  Q 403.31 280.77 400.08 279.20
  Q 395.81 277.11 391.90 274.75
  C 381.74 268.60 370.32 264.90 361.55 256.54
  Q 360.66 255.70 359.48 255.38
  Q 358.34 255.08 357.79 255.75
  Z
  M 833.78 592.38
  C 833.53 597.85 835.18 602.43 840.31 605.20
  Q 851.10 611.02 854.00 613.00
  Q 855.91 614.30 860.13 615.38
  A 0.96 0.96 0.0 0 0 860.72 615.35
  C 868.31 612.57 877.95 608.73 884.21 603.56
  Q 885.65 602.37 885.70 600.50
  Q 886.15 585.89 885.61 571.98
  C 885.53 569.93 885.66 568.19 882.80 568.79
  Q 879.62 569.45 878.23 567.78
  Q 874.08 562.80 868.03 560.80
  C 863.47 559.29 860.18 556.11 855.31 559.53
  C 848.44 564.35 840.45 564.93 835.29 571.78
  Q 833.69 573.90 833.75 576.56
  C 833.88 581.90 834.03 587.01 833.78 592.38
  Z
  M 287.96 898.88
  A 0.97 0.97 0.0 0 0 288.81 898.78
  C 299.38 892.16 313.07 885.97 321.60 881.18
  Q 345.10 867.99 367.52 853.01
  C 372.35 849.78 376.17 854.36 380.48 856.66
  Q 403.73 869.14 425.95 883.38
  A 1.00 1.00 0.0 0 0 427.49 882.60
  Q 427.65 879.87 426.47 877.54
  A 1.04 1.02 -0.6 0 0 425.99 877.08
  L 417.76 873.30
  A 1.01 1.00 4.2 0 1 417.22 872.68
  C 416.71 871.03 405.94 865.31 403.85 864.14
  Q 400.55 862.29 396.59 859.21
  Q 386.38 851.25 373.91 847.31
  C 370.61 846.27 367.66 847.53 365.16 849.41
  C 357.61 855.08 349.75 857.08 341.89 861.46
  Q 318.72 874.40 296.69 889.19
  C 295.79 889.80 284.68 897.76 287.96 898.88
  Z
  M 57.54 1458.86
  C 63.57 1463.91 70.88 1467.65 77.07 1471.61
  C 83.55 1475.76 95.22 1467.05 100.21 1463.86
  C 102.40 1462.46 105.42 1462.44 107.25 1460.93
  A 1.00 0.98 -19.4 0 0 107.61 1460.19
  Q 107.98 1446.74 108.01 1433.72
  C 108.02 1427.00 108.01 1425.44 100.99 1424.22
  Q 96.40 1423.42 94.12 1419.06
  A 0.94 0.94 0.0 0 0 93.70 1418.64
  C 87.20 1415.22 82.10 1412.03 75.28 1416.77
  Q 66.21 1423.06 57.59 1426.56
  A 1.01 1.01 0.0 0 0 57.05 1427.10
  Q 56.44 1428.50 56.17 1431.75
  Q 55.01 1445.29 57.20 1458.26
  A 1.00 0.95 -76.0 0 0 57.54 1458.86
  Z
  M 976.03 1614.75
  C 975.64 1596.07 975.56 1577.41 975.30 1558.73
  C 975.18 1550.83 973.30 1545.92 966.52 1542.22
  Q 964.47 1541.10 954.31 1534.94
  Q 929.97 1520.16 904.75 1507.32
  A 1.01 0.99 43.2 0 0 903.81 1507.34
  Q 899.44 1509.81 895.24 1512.52
  C 880.15 1522.23 864.63 1531.20 849.39 1540.65
  Q 844.46 1543.70 839.21 1546.19
  C 836.46 1547.50 835.36 1549.32 835.62 1552.26
  C 837.71 1575.32 836.53 1599.46 836.71 1622.69
  C 836.78 1632.45 843.58 1631.94 849.79 1635.70
  C 860.01 1641.90 870.25 1648.05 880.39 1654.39
  Q 885.33 1657.47 890.44 1660.25
  C 894.02 1662.20 896.46 1665.59 900.58 1666.30
  Q 906.86 1667.38 911.98 1665.03
  Q 933.33 1655.21 959.80 1638.80
  C 968.86 1633.18 976.27 1626.20 976.03 1614.75
  Z"
/>
<path fill="#d4ebb8" d="
  M 725.14 505.26
  Q 713.15 499.49 703.20 493.54
  C 677.81 478.35 654.98 464.01 630.60 452.42
  A 0.99 0.96 -42.8 0 0 629.78 452.40
  Q 616.46 458.02 603.95 465.46
  Q 570.52 485.37 536.98 505.37
  C 534.27 504.29 532.84 502.09 530.46 500.81
  Q 500.52 484.78 471.28 467.48
  Q 469.19 466.24 465.38 464.92
  A 1.00 0.99 25.6 0 0 464.21 465.33
  Q 463.18 466.95 464.08 468.98
  C 467.34 476.29 462.20 480.13 456.19 482.43
  Q 453.90 483.31 445.97 489.13
  C 422.23 475.49 398.57 460.99 374.25 448.49
  C 372.19 447.44 369.95 447.06 367.71 448.18
  Q 350.13 456.97 333.23 467.00
  C 318.03 476.03 303.11 484.33 288.39 493.59
  Q 280.97 498.25 272.06 503.02
  Q 261.27 508.78 250.83 515.19
  Q 246.22 516.37 244.12 512.28
  A 1.05 1.05 0.0 0 0 243.69 511.85
  Q 228.25 503.96 213.60 494.75
  C 207.64 491.01 201.66 488.13 195.54 484.90
  C 187.89 480.87 184.95 477.36 184.82 468.74
  Q 184.39 438.14 184.98 421.17
  C 185.05 419.09 183.87 416.87 187.00 415.96
  Q 191.59 419.10 197.00 420.53
  A 0.96 0.95 -49.7 0 0 197.68 420.47
  C 218.43 410.72 237.83 398.41 257.56 386.80
  C 264.61 382.65 270.92 378.34 278.61 374.44
  Q 282.30 372.57 287.76 369.53
  Q 330.66 345.59 343.54 337.53
  Q 350.50 333.19 356.74 328.76
  Q 358.66 327.40 358.48 325.06
  C 357.28 308.86 357.14 291.60 357.21 276.00
  C 357.24 269.18 357.60 262.40 357.79 255.75
  Q 358.34 255.08 359.48 255.38
  Q 360.66 255.70 361.55 256.54
  C 370.32 264.90 381.74 268.60 391.90 274.75
  Q 395.81 277.11 400.08 279.20
  Q 403.31 280.77 403.30 277.25
  L 402.93 167.39
  A 1.00 0.99 74.4 0 1 403.40 166.54
  C 426.42 152.26 449.58 138.12 473.13 124.75
  C 500.05 109.47 526.74 93.77 553.75 78.67
  Q 587.08 60.04 619.87 40.46
  C 623.19 38.49 625.80 36.10 628.70 33.61
  A 1.01 1.00 -48.5 0 1 629.89 33.53
  Q 633.34 35.72 642.23 40.52
  C 665.78 53.23 692.13 69.55 719.03 84.52
  C 729.24 90.20 739.75 96.95 749.17 102.25
  Q 777.08 117.96 804.48 134.54
  Q 812.88 139.62 821.91 144.32
  C 838.17 152.79 846.64 158.41 858.56 166.47
  A 1.01 1.00 17.2 0 1 859.00 167.30
  L 859.00 426.84
  A 1.00 0.98 74.1 0 1 858.54 427.68
  Q 828.80 446.53 797.97 463.40
  C 774.75 476.10 752.26 490.45 729.42 503.86
  C 728.03 504.68 726.70 504.88 725.14 505.26
  Z"
/>
<path fill="#b7df9c" d="
  M 357.79 255.75
  C 357.60 262.40 357.24 269.18 357.21 276.00
  C 357.14 291.60 357.28 308.86 358.48 325.06
  Q 358.66 327.40 356.74 328.76
  Q 350.50 333.19 343.54 337.53
  Q 330.66 345.59 287.76 369.53
  Q 282.30 372.57 278.61 374.44
  C 270.92 378.34 264.61 382.65 257.56 386.80
  C 237.83 398.41 218.43 410.72 197.68 420.47
  A 0.96 0.95 -49.7 0 1 197.00 420.53
  Q 191.59 419.10 187.00 415.96
  C 158.70 401.01 131.61 384.44 104.15 368.07
  C 90.28 359.81 74.88 351.73 60.55 342.94
  C 54.29 339.10 46.52 335.46 39.79 331.14
  C 35.09 328.12 36.07 320.50 36.57 315.68
  Q 37.15 310.24 37.14 306.65
  Q 37.01 237.69 36.86 168.74
  C 36.85 164.30 37.13 159.86 37.35 155.37
  C 37.79 146.26 36.32 143.02 45.10 137.56
  C 58.78 129.07 73.00 121.63 86.79 113.28
  C 101.30 104.49 116.01 96.74 130.46 88.19
  C 139.23 83.00 148.55 77.50 157.77 73.21
  C 159.26 72.51 160.43 71.31 161.71 70.59
  Q 185.97 57.13 191.49 53.50
  C 195.51 50.85 197.85 51.00 202.25 53.19
  C 227.79 65.95 254.51 82.65 280.43 97.57
  C 286.05 100.80 291.60 104.57 297.07 107.52
  C 316.40 117.95 336.20 128.47 354.37 140.85
  C 360.12 144.76 358.68 150.53 358.73 156.56
  C 358.98 189.48 360.24 222.92 357.79 255.75
  Z
  M 185.49 407.80
  C 187.84 411.30 190.31 412.11 194.50 413.27
  C 197.68 414.16 200.97 412.57 203.48 411.00
  Q 235.28 391.11 268.60 373.91
  C 277.49 369.32 286.17 362.99 294.73 358.25
  C 310.53 349.49 321.14 342.80 336.68 334.36
  C 340.98 332.02 347.20 327.76 353.01 325.22
  A 1.00 0.99 -14.6 0 0 353.61 324.21
  C 353.25 320.47 352.75 316.71 352.75 313.01
  C 352.77 293.91 353.58 272.55 352.48 251.21
  C 352.12 223.22 352.62 195.21 352.27 167.20
  Q 352.17 159.59 352.26 151.97
  C 352.30 148.54 351.33 145.91 348.44 144.30
  C 333.17 135.79 319.15 127.04 305.56 119.33
  Q 259.78 93.33 214.51 66.43
  Q 207.43 62.22 199.29 56.88
  Q 197.58 55.76 195.85 56.85
  C 193.81 58.12 191.19 59.20 189.11 60.48
  C 171.86 71.13 153.94 80.60 136.76 91.30
  C 109.21 108.44 82.81 122.51 57.79 137.46
  C 48.37 143.09 39.12 142.30 40.37 156.98
  Q 41.78 173.54 41.63 190.15
  C 41.28 227.08 41.52 264.04 41.44 300.97
  C 41.43 308.15 42.01 315.83 42.22 323.27
  Q 42.28 325.55 44.30 326.61
  C 58.20 333.86 72.58 342.86 85.17 349.97
  C 113.57 366.02 141.67 382.57 170.13 398.52
  Q 172.49 399.85 177.71 403.31
  Q 181.44 405.79 185.49 407.80
  Z"
/>
<path fill="#c6e4a0" d="
  M 352.48 251.21
  Q 341.21 245.33 329.98 239.39
  C 327.11 237.87 323.73 237.13 321.00 238.50
  Q 296.16 250.94 266.69 269.20
  Q 261.28 272.55 253.37 276.56
  C 233.39 286.69 213.59 299.22 196.57 310.02
  C 191.54 313.22 184.18 311.19 184.73 320.02
  Q 184.95 323.56 184.74 339.93
  Q 184.32 373.76 185.49 407.80
  Q 181.44 405.79 177.71 403.31
  Q 172.49 399.85 170.13 398.52
  C 141.67 382.57 113.57 366.02 85.17 349.97
  C 72.58 342.86 58.20 333.86 44.30 326.61
  Q 42.28 325.55 42.22 323.27
  C 42.01 315.83 41.43 308.15 41.44 300.97
  C 41.52 264.04 41.28 227.08 41.63 190.15
  Q 41.78 173.54 40.37 156.98
  C 39.12 142.30 48.37 143.09 57.79 137.46
  C 82.81 122.51 109.21 108.44 136.76 91.30
  C 153.94 80.60 171.86 71.13 189.11 60.48
  C 191.19 59.20 193.81 58.12 195.85 56.85
  Q 197.58 55.76 199.29 56.88
  Q 207.43 62.22 214.51 66.43
  Q 259.78 93.33 305.56 119.33
  C 319.15 127.04 333.17 135.79 348.44 144.30
  C 351.33 145.91 352.30 148.54 352.26 151.97
  Q 352.17 159.59 352.27 167.20
  C 352.62 195.21 352.12 223.22 352.48 251.21
  Z"
/>
<path fill="#d4ebb8" d="
  M 352.48 251.21
  C 353.58 272.55 352.77 293.91 352.75 313.01
  C 352.75 316.71 353.25 320.47 353.61 324.21
  A 1.00 0.99 -14.6 0 1 353.01 325.22
  C 347.20 327.76 340.98 332.02 336.68 334.36
  C 321.14 342.80 310.53 349.49 294.73 358.25
  C 286.17 362.99 277.49 369.32 268.60 373.91
  Q 235.28 391.11 203.48 411.00
  C 200.97 412.57 197.68 414.16 194.50 413.27
  C 190.31 412.11 187.84 411.30 185.49 407.80
  Q 184.32 373.76 184.74 339.93
  Q 184.95 323.56 184.73 320.02
  C 184.18 311.19 191.54 313.22 196.57 310.02
  C 213.59 299.22 233.39 286.69 253.37 276.56
  Q 261.28 272.55 266.69 269.20
  Q 296.16 250.94 321.00 238.50
  C 323.73 237.13 327.11 237.87 329.98 239.39
  Q 341.21 245.33 352.48 251.21
  Z"
/>
<path fill="#b7df9c" d="
  M 445.97 489.13
  Q 475.42 506.24 505.02 523.19
  C 506.14 523.83 507.49 525.16 507.90 522.75
  A 0.99 0.99 0.0 0 1 508.16 522.23
  Q 512.57 517.57 519.96 513.73
  Q 532.11 507.41 536.98 505.37
  Q 570.52 485.37 603.95 465.46
  Q 616.46 458.02 629.78 452.40
  A 0.99 0.96 -42.8 0 1 630.60 452.42
  C 654.98 464.01 677.81 478.35 703.20 493.54
  Q 713.15 499.49 725.14 505.26
  C 736.19 511.97 746.98 517.76 759.73 525.98
  C 769.79 532.48 781.08 539.66 792.55 543.26
  Q 794.96 544.02 794.90 546.55
  C 793.42 605.28 794.50 664.36 794.50 723.13
  C 794.50 733.00 793.60 737.38 785.61 743.42
  C 779.29 748.19 774.23 752.50 767.65 754.42
  Q 765.10 755.17 763.32 756.45
  C 744.88 769.81 728.45 777.24 710.41 787.19
  C 706.49 789.36 709.69 791.62 711.92 792.81
  C 716.56 795.29 721.43 797.69 725.87 800.29
  Q 776.69 830.06 827.81 859.36
  A 1.04 1.01 -82.7 0 1 828.27 859.97
  C 831.24 870.73 829.54 885.33 829.55 897.57
  Q 829.64 993.41 829.45 1089.25
  Q 829.45 1092.77 827.35 1094.01
  C 810.20 1104.17 792.53 1113.41 775.54 1123.80
  C 758.66 1134.12 741.66 1142.31 726.57 1152.18
  C 723.78 1154.00 720.23 1154.53 717.58 1157.39
  Q 675.24 1180.51 633.92 1205.42
  Q 629.29 1208.21 624.58 1205.68
  C 613.67 1199.82 602.92 1193.08 591.50 1188.27
  A 1.00 0.98 89.0 0 1 590.99 1187.77
  Q 590.21 1186.15 589.71 1185.83
  Q 578.38 1178.45 566.10 1172.71
  Q 559.21 1167.97 551.69 1164.19
  C 536.47 1156.55 522.14 1146.84 507.26 1138.48
  Q 502.35 1135.71 497.11 1133.56
  A 1.01 0.99 42.5 0 0 496.27 1133.59
  Q 479.71 1142.18 464.61 1153.30
  C 459.92 1156.76 454.59 1160.29 449.55 1162.98
  C 432.61 1172.00 415.86 1181.12 399.75 1191.56
  Q 388.89 1198.59 375.05 1205.28
  C 372.03 1206.74 370.53 1208.02 367.15 1206.43
  C 353.55 1199.99 339.27 1190.33 328.67 1183.97
  C 316.29 1176.54 304.72 1168.03 291.53 1162.05
  Q 284.56 1158.89 279.21 1155.98
  C 264.33 1147.88 251.34 1140.95 238.07 1131.69
  Q 234.27 1129.03 223.25 1123.16
  C 216.68 1119.65 208.13 1113.81 199.76 1110.29
  Q 199.05 1109.99 197.10 1107.24
  L 197.06 1101.40
  Q 199.05 1101.57 200.45 1102.82
  Q 202.89 1104.98 203.07 1105.10
  C 231.57 1123.42 260.51 1137.35 288.49 1154.96
  Q 297.19 1160.44 305.69 1165.12
  C 319.82 1172.91 333.41 1181.15 347.71 1189.13
  Q 358.84 1195.34 369.73 1201.96
  A 1.03 1.01 43.0 0 0 370.82 1201.93
  Q 379.98 1195.66 382.82 1194.07
  C 402.17 1183.21 422.36 1172.00 440.52 1161.03
  C 456.95 1151.11 473.56 1142.66 490.40 1134.06
  Q 491.34 1133.59 492.71 1133.29
  Q 493.67 1133.08 494.61 1132.75
  Q 496.62 1132.05 494.79 1130.95
  Q 486.69 1126.08 478.52 1121.32
  C 477.05 1120.46 476.63 1119.30 474.25 1118.73
  Q 472.52 1118.31 468.37 1115.92
  Q 450.82 1105.83 433.24 1095.77
  C 425.72 1091.47 427.33 1080.69 427.09 1073.46
  Q 426.62 1058.54 427.76 1048.25
  Q 428.00 1046.08 427.85 1044.55
  C 427.53 1041.34 427.90 1039.00 427.69 1036.12
  C 427.47 1033.07 428.58 1030.25 427.56 1027.00
  A 1.05 1.02 -48.1 0 1 427.54 1026.47
  Q 428.33 1023.09 427.81 1018.55
  Q 427.79 1018.44 427.80 1018.34
  Q 428.26 1013.53 427.52 1010.50
  Q 427.46 1010.25 427.53 1010.00
  Q 428.58 1006.17 427.55 1002.36
  A 0.94 0.89 46.8 0 1 427.55 1001.83
  C 428.48 998.48 427.45 995.75 427.82 992.53
  Q 428.03 990.73 428.02 988.50
  Q 427.89 969.94 427.59 957.46
  C 427.42 950.82 428.11 942.91 427.77 935.57
  C 427.66 933.14 428.72 931.29 428.77 929.11
  Q 429.13 915.38 428.88 912.68
  C 428.00 903.12 427.65 893.68 428.55 884.11
  C 428.94 879.89 427.40 876.18 427.46 872.43
  C 427.52 868.97 427.20 863.71 429.43 860.91
  Q 431.81 857.93 435.24 855.98
  C 449.13 848.11 462.89 840.04 476.88 832.34
  C 482.78 829.09 489.02 824.70 494.17 821.71
  Q 521.29 805.96 548.47 790.32
  A 1.00 0.99 -26.3 0 0 548.90 789.07
  Q 547.85 786.58 545.47 785.24
  Q 510.80 765.73 502.80 760.70
  C 495.62 756.18 488.15 752.33 481.86 748.54
  Q 476.11 745.07 470.10 742.03
  C 466.30 740.10 465.75 738.47 465.65 734.44
  Q 465.18 716.12 465.40 691.06
  C 465.70 656.85 465.29 605.46 465.02 550.35
  C 465.00 547.02 464.50 544.18 468.30 542.79
  Q 481.85 537.85 491.58 530.37
  Q 494.13 528.42 493.96 524.92
  A 1.01 0.99 14.6 0 0 493.47 524.10
  L 434.00 489.54
  C 427.12 485.81 420.23 482.27 413.51 478.18
  C 400.28 470.14 386.64 462.79 373.67 454.33
  Q 371.52 452.92 368.81 452.93
  A 0.96 0.95 26.9 0 0 368.25 453.11
  Q 356.46 461.16 352.07 463.58
  C 330.46 475.46 309.30 488.17 287.45 499.60
  Q 277.36 504.89 268.01 511.46
  C 264.68 513.79 260.79 515.30 257.25 517.54
  C 234.05 530.68 211.50 544.80 188.39 558.05
  Q 153.40 578.09 118.40 598.11
  C 108.73 603.64 95.68 611.63 84.09 618.03
  C 72.02 624.69 59.53 632.53 46.68 639.25
  A 1.01 0.99 -13.9 0 0 46.15 640.11
  Q 45.72 656.42 45.75 673.06
  Q 46.05 831.03 45.78 989.00
  Q 45.76 999.88 45.22 1011.82
  Q 45.12 1014.02 47.03 1015.13
  C 51.10 1017.50 55.73 1019.70 59.65 1022.01
  Q 75.13 1031.15 90.67 1040.17
  C 99.99 1045.58 114.58 1053.45 126.30 1060.65
  A 1.01 1.00 32.3 0 1 126.62 1062.05
  C 123.81 1066.37 120.01 1064.64 116.22 1062.37
  Q 88.34 1045.65 59.95 1029.78
  Q 51.71 1025.18 43.93 1019.83
  C 40.83 1017.70 39.20 1015.55 39.19 1011.50
  Q 38.82 845.90 39.29 680.31
  Q 39.35 659.15 38.90 639.33
  Q 38.85 637.12 40.75 635.98
  Q 73.53 616.32 105.58 598.20
  C 143.06 577.02 180.14 555.10 217.56 533.81
  Q 244.64 518.41 250.83 515.19
  Q 261.27 508.78 272.06 503.02
  Q 280.97 498.25 288.39 493.59
  C 303.11 484.33 318.03 476.03 333.23 467.00
  Q 350.13 456.97 367.71 448.18
  C 369.95 447.06 372.19 447.44 374.25 448.49
  C 398.57 460.99 422.23 475.49 445.97 489.13
  Z
  M 580.11 1174.94
  Q 594.57 1180.83 597.47 1182.76
  Q 610.42 1191.37 624.10 1198.81
  C 629.78 1201.90 632.98 1199.32 637.69 1196.53
  C 661.81 1182.26 686.25 1168.50 710.54 1154.50
  C 714.86 1152.07 718.77 1148.91 722.98 1146.77
  C 729.35 1143.53 735.38 1140.48 741.66 1136.55
  C 753.25 1129.28 766.54 1122.09 777.02 1115.81
  Q 799.83 1102.12 822.80 1089.08
  A 1.00 0.98 75.8 0 0 823.31 1088.21
  Q 822.75 985.38 823.28 882.56
  C 823.30 878.89 824.48 865.50 821.61 863.39
  Q 815.75 859.09 804.55 852.83
  C 782.76 840.64 761.11 828.16 739.46 815.73
  C 729.80 810.19 716.70 801.87 704.57 795.18
  Q 699.75 792.52 698.32 797.00
  C 697.54 799.45 699.79 801.18 700.12 803.36
  C 700.76 807.57 699.21 813.03 698.79 816.74
  C 698.65 818.00 699.21 818.78 699.24 819.75
  C 699.37 823.26 697.22 827.83 697.61 832.38
  Q 698.00 837.02 697.77 841.68
  Q 697.75 841.95 697.88 842.19
  C 701.07 848.45 700.08 855.74 699.96 865.93
  Q 699.94 867.39 700.08 868.09
  Q 700.24 868.88 700.24 869.07
  Q 700.29 913.26 700.22 957.45
  C 700.20 968.56 699.53 984.04 699.81 997.37
  C 699.88 1000.66 701.43 1003.87 700.28 1007.84
  Q 700.22 1008.06 700.26 1008.29
  L 701.64 1016.43
  A 1.00 0.98 -21.3 0 1 701.18 1017.45
  C 676.33 1032.75 650.53 1046.43 625.23 1060.99
  C 617.14 1065.65 609.39 1068.68 601.98 1073.62
  Q 597.65 1076.50 593.24 1079.22
  C 590.98 1080.62 587.68 1080.30 589.12 1076.59
  A 1.05 1.02 85.8 0 1 589.55 1076.08
  C 600.86 1069.46 611.33 1062.71 623.38 1056.14
  C 636.45 1049.01 649.50 1040.14 661.39 1033.22
  C 672.12 1026.97 682.50 1020.31 693.52 1014.56
  A 1.02 1.01 85.7 0 0 694.02 1013.97
  Q 694.49 1012.44 694.45 1009.31
  Q 693.64 956.69 694.02 866.31
  Q 694.05 858.51 694.71 846.33
  Q 695.93 823.44 694.89 801.18
  Q 694.73 797.76 691.51 798.92
  Q 683.25 801.90 676.35 806.88
  C 667.99 812.93 661.64 816.75 653.01 820.42
  Q 650.71 821.39 648.45 823.26
  C 639.67 830.50 629.75 833.52 619.02 827.98
  C 610.14 823.38 592.68 813.46 579.89 805.06
  Q 570.68 799.02 560.50 794.65
  A 1.01 1.00 2.9 0 1 559.95 794.05
  C 559.47 792.60 558.20 792.51 556.94 793.20
  C 531.30 807.31 508.68 821.73 483.92 834.85
  Q 481.41 836.17 479.30 837.48
  Q 459.73 849.58 439.36 860.29
  C 437.08 861.49 435.19 863.27 433.34 864.98
  A 1.01 1.00 -21.2 0 0 433.02 865.69
  Q 432.78 873.56 432.69 881.43
  C 432.66 883.43 431.85 886.14 431.76 888.56
  C 431.32 900.37 431.94 907.43 432.09 913.53
  C 432.20 917.95 433.95 926.91 432.52 930.71
  C 430.61 935.83 433.04 941.43 433.00 946.77
  Q 432.92 956.82 432.78 966.87
  C 432.76 968.14 432.05 968.91 432.29 970.33
  Q 432.66 972.52 432.66 972.60
  C 433.30 998.88 432.62 1025.46 432.09 1051.75
  Q 431.90 1060.92 432.47 1064.01
  Q 433.48 1069.47 433.09 1075.01
  C 432.84 1078.58 433.49 1081.55 434.06 1084.91
  C 434.66 1088.46 436.68 1090.55 439.57 1092.18
  C 458.02 1102.60 475.72 1114.37 494.40 1124.30
  C 505.79 1130.35 517.33 1137.64 529.08 1143.91
  Q 534.49 1146.80 561.41 1162.99
  C 567.44 1166.62 573.81 1171.01 580.11 1174.94
  Z"
/>
<path fill="#d4ebb8" d="
  M 434.00 489.54
  C 434.10 492.61 432.75 493.37 432.00 495.58
  A 1.01 0.94 -8.0 0 1 431.58 496.10
  Q 416.28 505.64 405.03 512.01
  Q 371.05 531.27 337.48 551.21
  Q 330.92 555.10 323.74 557.74
  A 0.98 0.97 47.0 0 1 322.97 557.71
  C 317.68 555.29 312.22 551.28 308.03 548.88
  Q 299.02 543.72 273.97 529.75
  Q 262.66 523.45 258.40 521.51
  A 0.96 0.94 86.9 0 1 257.93 521.08
  Q 257.06 519.45 257.25 517.54
  C 260.79 515.30 264.68 513.79 268.01 511.46
  Q 277.36 504.89 287.45 499.60
  C 309.30 488.17 330.46 475.46 352.07 463.58
  Q 356.46 461.16 368.25 453.11
  A 0.96 0.95 26.9 0 1 368.81 452.93
  Q 371.52 452.92 373.67 454.33
  C 386.64 462.79 400.28 470.14 413.51 478.18
  C 420.23 482.27 427.12 485.81 434.00 489.54
  Z"
/>
<path fill="#c6e4a0" d="
  M 536.98 505.37
  Q 532.11 507.41 519.96 513.73
  Q 512.57 517.57 508.16 522.23
  A 0.99 0.99 0.0 0 0 507.90 522.75
  C 507.49 525.16 506.14 523.83 505.02 523.19
  Q 475.42 506.24 445.97 489.13
  Q 453.90 483.31 456.19 482.43
  C 462.20 480.13 467.34 476.29 464.08 468.98
  Q 463.18 466.95 464.21 465.33
  A 1.00 0.99 25.6 0 1 465.38 464.92
  Q 469.19 466.24 471.28 467.48
  Q 500.52 484.78 530.46 500.81
  C 532.84 502.09 534.27 504.29 536.98 505.37
  Z"
/>
<path fill="#d4ebb8" d="
  M 840.31 605.20
  C 835.18 602.43 833.53 597.85 833.78 592.38
  C 834.03 587.01 833.88 581.90 833.75 576.56
  Q 833.69 573.90 835.29 571.78
  C 840.45 564.93 848.44 564.35 855.31 559.53
  C 860.18 556.11 863.47 559.29 868.03 560.80
  Q 874.08 562.80 878.23 567.78
  Q 879.62 569.45 882.80 568.79
  C 885.66 568.19 885.53 569.93 885.61 571.98
  Q 886.15 585.89 885.70 600.50
  Q 885.65 602.37 884.21 603.56
  C 877.95 608.73 868.31 612.57 860.72 615.35
  A 0.96 0.96 0.0 0 1 860.13 615.38
  Q 855.91 614.30 854.00 613.00
  Q 851.10 611.02 840.31 605.20
  Z
  M 836.19 585.84
  C 836.01 590.45 834.67 600.16 839.76 602.75
  Q 848.11 606.99 859.34 613.21
  A 1.03 1.02 49.9 0 0 860.15 613.28
  Q 872.40 609.17 883.12 601.92
  A 1.02 1.00 -15.7 0 0 883.56 601.15
  C 883.93 595.50 885.56 575.33 882.51 571.13
  A 1.02 1.00 76.4 0 0 881.88 570.74
  Q 878.66 570.13 877.49 569.00
  C 873.27 564.93 868.97 563.02 864.05 560.62
  C 856.45 556.89 854.85 562.66 849.19 565.18
  C 844.22 567.40 836.94 568.64 835.98 575.47
  C 835.48 579.03 836.31 582.73 836.19 585.84
  Z"
/>
<path fill="#c6e4a0" d="
  M 839.76 602.75
  C 834.67 600.16 836.01 590.45 836.19 585.84
  C 836.31 582.73 835.48 579.03 835.98 575.47
  C 836.94 568.64 844.22 567.40 849.19 565.18
  C 854.85 562.66 856.45 556.89 864.05 560.62
  C 868.97 563.02 873.27 564.93 877.49 569.00
  Q 878.66 570.13 881.88 570.74
  A 1.02 1.00 76.4 0 1 882.51 571.13
  C 885.56 575.33 883.93 595.50 883.56 601.15
  A 1.02 1.00 -15.7 0 1 883.12 601.92
  Q 872.40 609.17 860.15 613.28
  A 1.03 1.02 49.9 0 1 859.34 613.21
  Q 848.11 606.99 839.76 602.75
  Z"
/>
<path fill="#e3f1cf" d="
  M 162.29 1082.50
  C 161.22 1086.84 162.36 1090.29 162.18 1094.27
  Q 162.00 1098.18 162.00 1098.24
  C 162.37 1133.25 162.02 1168.25 162.29 1203.25
  C 161.64 1207.00 160.23 1215.36 164.79 1217.23
  Q 167.20 1218.21 169.47 1219.48
  C 183.46 1227.21 198.35 1236.35 211.33 1243.84
  Q 235.87 1258.01 260.50 1272.04
  Q 263.49 1275.11 267.53 1276.67
  A 0.96 0.96 0.0 0 1 268.05 1277.13
  Q 269.00 1278.91 267.74 1280.42
  A 1.00 0.97 -65.3 0 1 266.84 1280.77
  L 261.20 1280.02
  Q 256.07 1276.59 242.70 1269.03
  C 226.34 1259.78 210.05 1250.82 193.77 1240.98
  Q 177.38 1231.08 160.55 1221.92
  C 156.29 1219.61 155.36 1214.56 155.21 1210.25
  Q 155.66 1204.72 155.56 1199.18
  C 155.10 1170.82 155.56 1142.37 155.61 1114.01
  C 155.63 1105.96 156.12 1092.85 155.78 1082.25
  C 155.12 1041.50 156.25 1015.73 155.94 982.50
  C 155.90 978.06 155.35 971.95 156.91 967.88
  A 0.97 0.97 0.0 0 1 157.36 967.37
  C 163.15 964.16 168.89 962.53 175.17 958.37
  C 186.10 951.15 197.94 945.40 209.19 938.68
  C 227.10 928.00 245.28 917.78 263.30 907.29
  Q 267.03 905.12 274.73 902.54
  A 1.01 1.00 68.6 0 0 275.32 901.17
  Q 274.95 900.38 274.45 899.67
  Q 273.86 898.83 272.68 898.21
  Q 266.13 894.81 260.00 890.67
  A 1.01 1.01 0.0 0 1 259.56 889.75
  C 260.25 882.06 259.60 872.82 259.52 866.84
  Q 258.84 817.52 259.26 800.00
  Q 259.83 776.31 259.52 764.75
  A 1.03 1.00 70.3 0 1 259.89 763.94
  Q 261.75 762.43 263.83 761.28
  C 269.48 758.16 274.95 753.38 278.74 751.47
  C 299.14 741.21 318.92 728.81 338.61 717.22
  C 345.33 713.25 355.70 707.89 363.48 702.71
  Q 370.91 697.76 378.29 702.69
  Q 385.60 707.58 399.45 715.44
  C 423.08 728.85 446.46 742.74 469.96 756.37
  C 472.78 758.00 474.70 759.35 478.06 760.66
  C 480.41 761.57 480.98 763.68 480.94 766.19
  Q 480.56 794.59 481.15 823.00
  Q 481.18 824.80 481.53 826.60
  A 1.01 1.00 69.2 0 1 481.06 827.65
  L 479.91 828.33
  A 1.00 1.00 0.0 0 1 478.40 827.49
  Q 477.85 796.40 478.09 768.54
  C 478.11 765.56 476.96 764.30 474.53 762.98
  C 466.23 758.47 458.65 752.82 450.27 748.60
  C 441.46 744.17 432.63 738.80 424.41 734.38
  Q 417.42 730.61 410.59 726.56
  C 398.09 719.13 386.88 712.85 375.04 705.96
  C 367.60 701.64 362.47 708.42 356.61 711.77
  Q 340.10 721.19 323.46 730.38
  Q 288.90 749.49 280.69 754.95
  Q 272.12 760.66 263.71 765.32
  A 0.99 0.98 -16.1 0 0 263.20 766.23
  C 264.42 800.14 264.04 834.08 263.90 868.00
  Q 263.86 878.26 263.18 888.21
  A 1.00 1.00 0.0 0 0 263.56 889.07
  Q 270.05 894.13 277.53 897.34
  C 285.37 900.71 292.64 906.33 299.95 910.28
  Q 323.78 923.16 345.30 936.39
  C 353.49 941.42 361.73 945.39 370.17 949.63
  A 0.98 0.97 46.8 0 0 371.00 949.66
  Q 376.32 947.49 381.90 944.09
  Q 399.43 933.39 417.74 924.09
  Q 418.00 923.95 421.63 921.63
  Q 423.37 920.52 425.41 920.00
  A 1.00 1.00 0.0 0 1 426.64 921.19
  L 426.30 922.66
  A 1.02 1.00 -8.3 0 1 425.80 923.32
  Q 415.17 928.97 405.09 935.07
  C 394.50 941.49 382.70 947.70 371.75 954.76
  A 1.02 1.00 -47.4 0 1 370.75 954.81
  Q 357.32 947.89 345.13 940.40
  C 326.27 928.81 306.94 918.08 287.97 906.63
  Q 285.94 905.40 283.70 904.62
  C 278.74 902.89 276.80 906.24 273.47 908.23
  Q 240.83 927.75 207.71 946.44
  C 200.80 950.34 191.04 956.76 182.23 961.15
  C 176.03 964.24 169.27 970.18 162.94 971.63
  A 0.98 0.98 0.0 0 0 162.18 972.46
  C 161.64 976.32 161.99 980.90 161.87 983.91
  Q 161.41 995.49 161.77 1007.07
  C 162.54 1032.21 162.25 1057.36 162.29 1082.50
  Z"
/>
<path fill="#c6e4a0" d="
  M 710.54 1154.50
  Q 711.59 1152.91 710.01 1151.94
  Q 688.30 1138.54 661.48 1124.99
  C 657.33 1122.90 656.43 1120.50 651.24 1123.41
  Q 622.74 1139.41 594.75 1156.30
  C 593.26 1157.20 591.12 1157.83 589.45 1158.67
  Q 587.10 1159.84 586.90 1157.22
  C 586.64 1153.86 586.66 1150.53 586.26 1147.19
  C 585.98 1144.81 586.92 1141.69 587.05 1140.18
  C 588.05 1128.46 586.83 1117.19 586.02 1105.50
  C 585.79 1102.09 587.02 1098.37 587.03 1095.14
  C 587.06 1087.20 585.31 1079.05 585.60 1071.71
  C 585.93 1063.66 587.58 1055.60 587.49 1047.82
  Q 587.21 1023.41 587.23 999.00
  C 587.23 992.74 588.58 985.12 588.25 978.01
  C 587.99 972.37 586.53 969.94 582.02 966.99
  Q 570.46 959.44 561.97 954.55
  C 551.79 948.70 543.45 943.27 534.01 937.94
  Q 509.94 924.35 485.84 910.83
  C 479.24 907.12 473.76 902.65 467.62 900.93
  A 1.04 1.02 81.9 0 1 467.03 900.48
  L 466.76 900.02
  A 1.01 1.00 59.2 0 1 467.10 898.65
  L 472.96 895.11
  A 0.99 0.96 -5.3 0 0 473.36 894.64
  Q 474.84 891.14 471.21 891.21
  A 1.05 1.04 -64.6 0 0 470.60 891.43
  C 467.47 893.95 464.66 896.59 461.12 898.58
  Q 447.09 906.48 440.32 912.31
  Q 438.04 914.27 440.93 914.27
  A 1.02 0.97 27.9 0 0 441.46 914.12
  Q 446.41 911.00 451.34 907.88
  C 454.28 906.01 457.80 905.47 460.88 904.25
  Q 463.83 903.08 466.39 904.97
  C 471.20 908.53 475.58 911.70 481.05 914.68
  C 492.03 920.66 503.26 928.27 513.22 933.77
  C 528.92 942.44 545.43 950.64 560.37 960.55
  C 567.43 965.23 572.66 968.09 579.73 970.61
  Q 581.75 971.33 581.78 973.47
  C 582.23 1004.94 581.14 1032.57 582.38 1071.30
  C 582.58 1077.26 583.03 1083.30 582.74 1089.23
  Q 581.24 1119.64 582.21 1150.07
  Q 582.37 1155.19 585.16 1158.58
  A 1.00 1.00 0.0 0 1 585.07 1159.95
  L 578.24 1166.31
  A 0.99 0.98 -23.2 0 0 577.92 1167.10
  L 578.19 1171.68
  A 1.01 0.99 -76.6 0 0 578.68 1172.49
  Q 579.94 1173.22 580.11 1174.94
  C 573.81 1171.01 567.44 1166.62 561.41 1162.99
  Q 534.49 1146.80 529.08 1143.91
  C 517.33 1137.64 505.79 1130.35 494.40 1124.30
  C 475.72 1114.37 458.02 1102.60 439.57 1092.18
  C 436.68 1090.55 434.66 1088.46 434.06 1084.91
  C 433.49 1081.55 432.84 1078.58 433.09 1075.01
  Q 433.48 1069.47 432.47 1064.01
  Q 431.90 1060.92 432.09 1051.75
  C 432.62 1025.46 433.30 998.88 432.66 972.60
  Q 432.66 972.52 432.29 970.33
  C 432.05 968.91 432.76 968.14 432.78 966.87
  Q 432.92 956.82 433.00 946.77
  C 433.04 941.43 430.61 935.83 432.52 930.71
  C 433.95 926.91 432.20 917.95 432.09 913.53
  C 431.94 907.43 431.32 900.37 431.76 888.56
  C 431.85 886.14 432.66 883.43 432.69 881.43
  Q 432.78 873.56 433.02 865.69
  A 1.01 1.00 -21.2 0 1 433.34 864.98
  C 435.19 863.27 437.08 861.49 439.36 860.29
  Q 459.73 849.58 479.30 837.48
  Q 481.41 836.17 483.92 834.85
  C 508.68 821.73 531.30 807.31 556.94 793.20
  C 558.20 792.51 559.47 792.60 559.95 794.05
  A 1.01 1.00 2.9 0 0 560.50 794.65
  Q 570.68 799.02 579.89 805.06
  C 592.68 813.46 610.14 823.38 619.02 827.98
  C 629.75 833.52 639.67 830.50 648.45 823.26
  Q 650.71 821.39 653.01 820.42
  C 661.64 816.75 667.99 812.93 676.35 806.88
  Q 683.25 801.90 691.51 798.92
  Q 694.73 797.76 694.89 801.18
  Q 695.93 823.44 694.71 846.33
  Q 694.05 858.51 694.02 866.31
  Q 693.64 956.69 694.45 1009.31
  Q 694.49 1012.44 694.02 1013.97
  A 1.02 1.01 85.7 0 1 693.52 1014.56
  C 682.50 1020.31 672.12 1026.97 661.39 1033.22
  C 649.50 1040.14 636.45 1049.01 623.38 1056.14
  C 611.33 1062.71 600.86 1069.46 589.55 1076.08
  A 1.05 1.02 85.8 0 0 589.12 1076.59
  C 587.68 1080.30 590.98 1080.62 593.24 1079.22
  Q 597.65 1076.50 601.98 1073.62
  C 609.39 1068.68 617.14 1065.65 625.23 1060.99
  C 650.53 1046.43 676.33 1032.75 701.18 1017.45
  A 1.00 0.98 -21.3 0 0 701.64 1016.43
  L 700.26 1008.29
  Q 700.22 1008.06 700.28 1007.84
  C 701.43 1003.87 699.88 1000.66 699.81 997.37
  C 699.53 984.04 700.20 968.56 700.22 957.45
  Q 700.29 913.26 700.24 869.07
  Q 700.24 868.88 700.08 868.09
  Q 699.94 867.39 699.96 865.93
  C 700.08 855.74 701.07 848.45 697.88 842.19
  Q 697.75 841.95 697.77 841.68
  Q 698.00 837.02 697.61 832.38
  C 697.22 827.83 699.37 823.26 699.24 819.75
  C 699.21 818.78 698.65 818.00 698.79 816.74
  C 699.21 813.03 700.76 807.57 700.12 803.36
  C 699.79 801.18 697.54 799.45 698.32 797.00
  Q 699.75 792.52 704.57 795.18
  C 716.70 801.87 729.80 810.19 739.46 815.73
  C 761.11 828.16 782.76 840.64 804.55 852.83
  Q 815.75 859.09 821.61 863.39
  C 824.48 865.50 823.30 878.89 823.28 882.56
  Q 822.75 985.38 823.31 1088.21
  A 1.00 0.98 75.8 0 1 822.80 1089.08
  Q 799.83 1102.12 777.02 1115.81
  C 766.54 1122.09 753.25 1129.28 741.66 1136.55
  C 735.38 1140.48 729.35 1143.53 722.98 1146.77
  C 718.77 1148.91 714.86 1152.07 710.54 1154.50
  Z"
/>
<path fill="#d4ebb8" d="
  M 287.96 898.88
  C 284.68 897.76 295.79 889.80 296.69 889.19
  Q 318.72 874.40 341.89 861.46
  C 349.75 857.08 357.61 855.08 365.16 849.41
  C 367.66 847.53 370.61 846.27 373.91 847.31
  Q 386.38 851.25 396.59 859.21
  Q 400.55 862.29 403.85 864.14
  C 405.94 865.31 416.71 871.03 417.22 872.68
  A 1.01 1.00 4.2 0 0 417.76 873.30
  L 425.99 877.08
  A 1.04 1.02 -0.6 0 1 426.47 877.54
  Q 427.65 879.87 427.49 882.60
  A 1.00 1.00 0.0 0 1 425.95 883.38
  Q 403.73 869.14 380.48 856.66
  C 376.17 854.36 372.35 849.78 367.52 853.01
  Q 345.10 867.99 321.60 881.18
  C 313.07 885.97 299.38 892.16 288.81 898.78
  A 0.97 0.97 0.0 0 1 287.96 898.88
  Z"
/>
<path fill="#d4ebb8" d="
  M 710.54 1154.50
  C 686.25 1168.50 661.81 1182.26 637.69 1196.53
  C 632.98 1199.32 629.78 1201.90 624.10 1198.81
  Q 610.42 1191.37 597.47 1182.76
  Q 594.57 1180.83 580.11 1174.94
  Q 579.94 1173.22 578.68 1172.49
  A 1.01 0.99 -76.6 0 1 578.19 1171.68
  L 577.92 1167.10
  A 0.99 0.98 -23.2 0 1 578.24 1166.31
  L 585.07 1159.95
  A 1.00 1.00 0.0 0 0 585.16 1158.58
  Q 582.37 1155.19 582.21 1150.07
  Q 581.24 1119.64 582.74 1089.23
  C 583.03 1083.30 582.58 1077.26 582.38 1071.30
  C 581.14 1032.57 582.23 1004.94 581.78 973.47
  Q 581.75 971.33 579.73 970.61
  C 572.66 968.09 567.43 965.23 560.37 960.55
  C 545.43 950.64 528.92 942.44 513.22 933.77
  C 503.26 928.27 492.03 920.66 481.05 914.68
  C 475.58 911.70 471.20 908.53 466.39 904.97
  Q 463.83 903.08 460.88 904.25
  C 457.80 905.47 454.28 906.01 451.34 907.88
  Q 446.41 911.00 441.46 914.12
  A 1.02 0.97 27.9 0 1 440.93 914.27
  Q 438.04 914.27 440.32 912.31
  Q 447.09 906.48 461.12 898.58
  C 464.66 896.59 467.47 893.95 470.60 891.43
  A 1.05 1.04 -64.6 0 1 471.21 891.21
  Q 474.84 891.14 473.36 894.64
  A 0.99 0.96 -5.3 0 1 472.96 895.11
  L 467.10 898.65
  A 1.01 1.00 59.2 0 0 466.76 900.02
  L 467.03 900.48
  A 1.04 1.02 81.9 0 0 467.62 900.93
  C 473.76 902.65 479.24 907.12 485.84 910.83
  Q 509.94 924.35 534.01 937.94
  C 543.45 943.27 551.79 948.70 561.97 954.55
  Q 570.46 959.44 582.02 966.99
  C 586.53 969.94 587.99 972.37 588.25 978.01
  C 588.58 985.12 587.23 992.74 587.23 999.00
  Q 587.21 1023.41 587.49 1047.82
  C 587.58 1055.60 585.93 1063.66 585.60 1071.71
  C 585.31 1079.05 587.06 1087.20 587.03 1095.14
  C 587.02 1098.37 585.79 1102.09 586.02 1105.50
  C 586.83 1117.19 588.05 1128.46 587.05 1140.18
  C 586.92 1141.69 585.98 1144.81 586.26 1147.19
  C 586.66 1150.53 586.64 1153.86 586.90 1157.22
  Q 587.10 1159.84 589.45 1158.67
  C 591.12 1157.83 593.26 1157.20 594.75 1156.30
  Q 622.74 1139.41 651.24 1123.41
  C 656.43 1120.50 657.33 1122.90 661.48 1124.99
  Q 688.30 1138.54 710.01 1151.94
  Q 711.59 1152.91 710.54 1154.50
  Z"
/>
<path fill="#d4ebb8" d="
  M 155.78 1082.25
  C 156.12 1092.85 155.63 1105.96 155.61 1114.01
  C 155.56 1142.37 155.10 1170.82 155.56 1199.18
  Q 155.66 1204.72 155.21 1210.25
  C 154.44 1207.51 152.43 1207.69 150.42 1209.07
  Q 140.17 1216.15 127.72 1222.40
  A 1.01 1.00 -45.3 0 1 126.84 1222.41
  Q 121.05 1219.63 115.06 1215.45
  C 104.90 1208.35 82.54 1198.17 60.61 1183.66
  Q 58.66 1182.37 58.62 1180.03
  Q 58.05 1148.22 58.55 1115.75
  Q 58.59 1113.19 59.41 1104.94
  C 59.69 1102.07 60.16 1101.00 62.74 1099.48
  Q 88.94 1084.11 115.30 1069.05
  Q 116.30 1068.48 118.93 1065.62
  A 1.02 1.01 26.0 0 1 119.84 1065.31
  Q 123.63 1065.99 124.95 1066.79
  Q 137.35 1074.30 141.66 1077.10
  C 145.34 1079.48 155.57 1086.00 155.78 1082.25
  Z"
/>
<path fill="#d4ebb8" d="
  M 162.29 1082.50
  L 163.36 1085.88
  A 1.01 1.00 -3.0 0 0 164.11 1086.55
  C 165.91 1086.94 167.15 1088.18 168.72 1088.64
  Q 172.81 1089.83 176.88 1091.03
  C 183.26 1092.91 189.46 1096.54 195.29 1098.75
  Q 197.27 1099.50 197.06 1101.40
  L 197.10 1107.24
  C 196.89 1132.28 196.64 1157.23 197.05 1182.72
  A 1.02 1.01 -13.2 0 1 196.47 1183.65
  Q 178.53 1191.93 162.29 1203.25
  C 162.02 1168.25 162.37 1133.25 162.00 1098.24
  Q 162.00 1098.18 162.18 1094.27
  C 162.36 1090.29 161.22 1086.84 162.29 1082.50
  Z"
/>
<path fill="#c6e4a0" d="
  M 197.10 1107.24
  Q 199.05 1109.99 199.76 1110.29
  C 208.13 1113.81 216.68 1119.65 223.25 1123.16
  Q 234.27 1129.03 238.07 1131.69
  C 251.34 1140.95 264.33 1147.88 279.21 1155.98
  Q 284.56 1158.89 291.53 1162.05
  C 304.72 1168.03 316.29 1176.54 328.67 1183.97
  C 339.27 1190.33 353.55 1199.99 367.15 1206.43
  C 370.53 1208.02 372.03 1206.74 375.05 1205.28
  Q 388.89 1198.59 399.75 1191.56
  C 415.86 1181.12 432.61 1172.00 449.55 1162.98
  C 454.59 1160.29 459.92 1156.76 464.61 1153.30
  Q 479.71 1142.18 496.27 1133.59
  A 1.01 0.99 42.5 0 1 497.11 1133.56
  Q 502.35 1135.71 507.26 1138.48
  C 522.14 1146.84 536.47 1156.55 551.69 1164.19
  Q 559.21 1167.97 566.10 1172.71
  Q 549.17 1181.59 526.07 1195.56
  Q 519.74 1199.39 516.43 1204.96
  A 1.10 1.03 60.6 0 0 516.29 1205.53
  Q 517.33 1226.10 516.33 1246.67
  A 1.03 1.01 -69.9 0 0 516.71 1247.51
  Q 518.70 1249.06 518.49 1251.40
  Q 477.34 1275.46 436.11 1299.29
  C 429.62 1303.05 419.43 1308.12 412.43 1312.93
  Q 403.60 1319.00 396.41 1322.15
  Q 393.55 1323.39 392.11 1320.51
  A 0.97 0.97 0.0 0 0 391.72 1320.09
  L 370.46 1307.76
  C 353.76 1295.72 340.13 1288.46 319.90 1277.65
  C 315.96 1275.55 295.30 1261.81 291.53 1263.28
  Q 279.73 1267.86 270.07 1275.60
  A 1.00 0.99 -52.6 0 1 269.05 1275.74
  L 260.50 1272.04
  Q 235.87 1258.01 211.33 1243.84
  C 198.35 1236.35 183.46 1227.21 169.47 1219.48
  Q 167.20 1218.21 164.79 1217.23
  C 160.23 1215.36 161.64 1207.00 162.29 1203.25
  Q 178.53 1191.93 196.47 1183.65
  A 1.02 1.01 -13.2 0 0 197.05 1182.72
  C 196.64 1157.23 196.89 1132.28 197.10 1107.24
  Z"
/>
<path fill="#d4ebb8" d="
  M 717.58 1157.39
  C 724.55 1158.73 730.07 1163.58 736.06 1167.00
  Q 760.39 1180.90 784.82 1194.63
  C 790.35 1197.73 795.75 1202.06 795.75 1209.01
  Q 795.75 1280.75 795.75 1352.50
  C 795.75 1355.78 796.73 1361.94 793.98 1364.00
  C 783.01 1372.24 767.97 1378.93 755.90 1386.17
  Q 731.80 1400.62 707.15 1414.09
  C 705.19 1415.16 701.96 1416.43 699.58 1417.99
  A 1.03 1.01 -12.7 0 0 699.13 1418.68
  Q 698.02 1426.54 698.02 1430.31
  Q 697.98 1508.30 698.01 1589.38
  A 1.03 1.00 -15.9 0 1 697.51 1590.25
  C 645.83 1620.78 593.49 1650.45 541.33 1680.35
  C 536.54 1683.10 534.47 1685.05 529.97 1682.53
  Q 501.96 1666.83 474.27 1650.48
  Q 464.09 1643.99 453.56 1638.02
  C 440.47 1630.60 428.27 1622.86 416.26 1616.23
  Q 391.59 1602.58 374.21 1592.19
  C 373.06 1591.51 371.90 1591.09 370.67 1590.52
  A 0.99 0.99 0.0 0 1 370.10 1589.51
  Q 370.62 1584.63 370.54 1581.75
  Q 370.09 1563.50 369.83 1545.24
  C 369.66 1533.44 370.80 1518.34 370.24 1504.84
  Q 369.97 1460.72 370.28 1416.81
  C 370.31 1412.00 369.86 1407.64 369.21 1402.96
  A 1.00 0.99 62.7 0 1 369.47 1402.13
  Q 373.35 1398.02 379.54 1394.58
  Q 401.84 1382.22 424.13 1369.84
  C 425.72 1368.96 428.02 1367.00 430.57 1366.30
  A 1.01 1.01 0.0 0 0 431.29 1365.54
  Q 432.53 1359.57 431.61 1353.49
  Q 434.12 1353.54 432.92 1355.25
  Q 432.53 1355.80 433.20 1355.77
  L 433.62 1355.75
  A 0.63 0.63 0.0 0 0 434.23 1355.13
  L 434.29 1352.50
  L 435.08 1361.42
  A 1.00 0.99 -15.1 0 0 436.50 1362.23
  C 439.07 1361.03 441.72 1359.88 444.20 1358.37
  C 464.70 1345.90 490.59 1331.94 515.38 1316.69
  C 518.14 1315.00 519.14 1312.76 517.12 1309.98
  A 1.02 0.98 27.3 0 1 516.93 1309.43
  Q 515.99 1285.06 516.61 1269.94
  Q 516.81 1265.24 515.43 1262.10
  A 0.98 0.98 0.0 0 0 514.58 1261.51
  L 513.75 1261.46
  Q 524.08 1254.78 534.92 1249.00
  C 546.42 1242.86 557.25 1236.39 568.05 1229.62
  Q 573.34 1226.30 580.78 1223.51
  C 588.88 1220.47 588.75 1212.16 588.33 1204.15
  C 588.03 1198.18 588.68 1192.33 588.76 1186.32
  A 1.00 0.99 -76.3 0 0 588.21 1185.41
  L 582.15 1182.42
  Q 580.55 1181.63 580.71 1183.40
  C 581.58 1193.08 581.49 1202.62 582.18 1212.45
  Q 582.36 1215.07 580.11 1216.42
  C 563.35 1226.49 546.00 1235.22 529.43 1245.68
  Q 526.69 1247.41 518.49 1251.40
  Q 518.70 1249.06 516.71 1247.51
  A 1.03 1.01 -69.9 0 1 516.33 1246.67
  Q 517.33 1226.10 516.29 1205.53
  A 1.10 1.03 60.6 0 1 516.43 1204.96
  Q 519.74 1199.39 526.07 1195.56
  Q 549.17 1181.59 566.10 1172.71
  Q 578.38 1178.45 589.71 1185.83
  Q 590.21 1186.15 590.99 1187.77
  A 1.00 0.98 89.0 0 0 591.50 1188.27
  C 602.92 1193.08 613.67 1199.82 624.58 1205.68
  Q 629.29 1208.21 633.92 1205.42
  Q 675.24 1180.51 717.58 1157.39
  Z
  M 519.94 1363.81
  C 534.10 1374.88 551.26 1382.94 567.05 1391.46
  C 577.84 1397.28 590.29 1405.52 601.45 1411.97
  C 617.16 1421.06 632.35 1430.84 648.71 1438.76
  C 656.63 1442.59 666.95 1436.35 674.52 1432.78
  C 682.45 1429.05 689.69 1423.46 697.30 1418.97
  A 1.01 0.98 -7.6 0 0 697.75 1418.40
  C 699.25 1413.37 699.72 1405.83 696.50 1401.36
  C 694.06 1397.98 689.57 1396.45 686.96 1394.73
  Q 678.06 1388.85 665.77 1381.97
  C 652.19 1374.37 629.07 1360.23 609.21 1349.18
  C 591.55 1339.35 573.49 1329.77 556.64 1318.60
  C 551.26 1315.03 539.10 1306.47 532.57 1307.59
  Q 526.72 1308.60 520.05 1311.94
  A 1.00 0.98 3.3 0 0 519.65 1312.29
  Q 516.47 1317.26 516.53 1319.25
  Q 516.95 1333.47 517.26 1347.69
  C 517.39 1353.62 514.10 1359.25 519.94 1363.81
  Z
  M 434.81 1506.70
  C 435.21 1506.50 437.70 1505.87 436.68 1504.97
  A 0.67 0.64 61.5 0 0 436.18 1504.81
  C 432.63 1505.20 434.41 1498.57 434.43 1496.44
  Q 434.88 1436.93 434.72 1377.43
  C 434.72 1375.30 434.44 1372.95 434.33 1370.73
  A 1.00 1.00 0.0 0 0 433.33 1369.78
  L 432.99 1369.78
  A 0.81 0.80 0.4 0 0 432.18 1370.57
  C 431.60 1415.48 432.15 1460.41 432.02 1505.34
  A 0.99 0.98 68.8 0 1 431.71 1506.06
  Q 429.40 1508.29 426.69 1509.46
  C 418.21 1513.12 410.16 1518.67 403.35 1522.63
  C 395.78 1527.02 390.02 1531.66 382.55 1535.93
  A 1.02 1.01 81.9 0 0 382.06 1536.59
  C 381.44 1539.42 385.94 1535.95 386.60 1535.64
  C 393.00 1532.57 395.91 1528.35 403.50 1526.43
  C 414.29 1523.70 424.06 1515.73 432.66 1508.90
  Q 433.68 1508.09 434.42 1507.03
  Q 434.57 1506.81 434.81 1506.70
  Z"
/>
<path fill="#e3f1cf" d="
  M 513.75 1261.46
  Q 485.94 1277.70 457.91 1293.56
  C 442.10 1302.49 426.46 1311.94 410.68 1321.02
  Q 406.94 1323.17 403.27 1325.49
  A 1.00 0.99 43.0 0 0 403.33 1327.21
  Q 413.27 1332.58 423.03 1338.96
  Q 425.83 1340.79 428.41 1341.40
  C 434.62 1342.88 433.87 1347.48 434.29 1352.50
  L 434.23 1355.13
  A 0.63 0.63 0.0 0 1 433.62 1355.75
  L 433.20 1355.77
  Q 432.53 1355.80 432.92 1355.25
  Q 434.12 1353.54 431.61 1353.49
  Q 433.42 1349.81 431.83 1346.73
  C 430.59 1344.34 426.58 1343.14 424.23 1341.51
  Q 416.46 1336.12 408.12 1331.67
  C 401.31 1328.05 400.22 1324.15 391.82 1329.27
  Q 383.53 1334.33 374.80 1338.76
  Q 373.00 1337.96 373.71 1336.75
  C 377.17 1334.83 380.58 1333.42 384.00 1331.21
  Q 388.10 1328.55 392.58 1326.58
  Q 395.62 1325.24 393.11 1323.07
  C 386.98 1317.78 376.69 1313.03 368.56 1310.03
  Q 369.37 1308.01 370.46 1307.76
  L 391.72 1320.09
  A 0.97 0.97 0.0 0 1 392.11 1320.51
  Q 393.55 1323.39 396.41 1322.15
  Q 403.60 1319.00 412.43 1312.93
  C 419.43 1308.12 429.62 1303.05 436.11 1299.29
  Q 477.34 1275.46 518.49 1251.40
  Q 526.69 1247.41 529.43 1245.68
  C 546.00 1235.22 563.35 1226.49 580.11 1216.42
  Q 582.36 1215.07 582.18 1212.45
  C 581.49 1202.62 581.58 1193.08 580.71 1183.40
  Q 580.55 1181.63 582.15 1182.42
  L 588.21 1185.41
  A 1.00 0.99 -76.3 0 1 588.76 1186.32
  C 588.68 1192.33 588.03 1198.18 588.33 1204.15
  C 588.75 1212.16 588.88 1220.47 580.78 1223.51
  Q 573.34 1226.30 568.05 1229.62
  C 557.25 1236.39 546.42 1242.86 534.92 1249.00
  Q 524.08 1254.78 513.75 1261.46
  Z"
/>
<path fill="#c6e4a0" d="
  M 513.75 1261.46
  L 514.58 1261.51
  A 0.98 0.98 0.0 0 1 515.43 1262.10
  Q 516.81 1265.24 516.61 1269.94
  Q 515.99 1285.06 516.93 1309.43
  A 1.02 0.98 27.3 0 0 517.12 1309.98
  C 519.14 1312.76 518.14 1315.00 515.38 1316.69
  C 490.59 1331.94 464.70 1345.90 444.20 1358.37
  C 441.72 1359.88 439.07 1361.03 436.50 1362.23
  A 1.00 0.99 -15.1 0 1 435.08 1361.42
  L 434.29 1352.50
  C 433.87 1347.48 434.62 1342.88 428.41 1341.40
  Q 425.83 1340.79 423.03 1338.96
  Q 413.27 1332.58 403.33 1327.21
  A 1.00 0.99 43.0 0 1 403.27 1325.49
  Q 406.94 1323.17 410.68 1321.02
  C 426.46 1311.94 442.10 1302.49 457.91 1293.56
  Q 485.94 1277.70 513.75 1261.46
  Z"
/>
<path fill="#d4ebb8" d="
  M 370.46 1307.76
  Q 369.37 1308.01 368.56 1310.03
  Q 343.12 1295.47 317.75 1280.82
  C 311.29 1277.09 302.56 1271.20 293.93 1267.60
  A 1.04 1.04 0.0 0 1 293.41 1267.11
  C 292.52 1265.28 291.60 1266.95 290.85 1267.30
  C 281.92 1271.34 275.62 1273.86 271.04 1278.82
  Q 269.81 1280.15 271.59 1280.48
  C 273.66 1280.87 275.65 1281.21 277.55 1282.27
  Q 307.24 1298.84 336.83 1315.57
  Q 340.53 1317.65 344.42 1320.26
  C 351.86 1325.23 360.12 1329.44 367.09 1334.39
  Q 370.21 1336.62 373.71 1336.75
  Q 373.00 1337.96 374.80 1338.76
  Q 368.44 1341.43 362.60 1338.12
  Q 359.60 1336.42 359.47 1336.36
  Q 340.02 1326.68 321.64 1315.16
  C 303.75 1303.96 283.71 1293.65 267.54 1283.23
  C 265.18 1281.71 263.92 1281.57 261.39 1283.13
  Q 248.86 1290.86 235.91 1297.89
  C 216.57 1308.38 197.62 1320.15 178.84 1331.63
  C 171.04 1336.41 162.36 1339.52 155.16 1345.01
  Q 152.94 1346.70 153.00 1349.49
  Q 154.15 1408.00 153.66 1466.50
  Q 153.47 1488.58 153.83 1502.77
  Q 153.95 1507.42 157.54 1509.01
  Q 160.65 1510.40 172.64 1517.67
  C 188.10 1527.05 204.08 1535.33 219.44 1544.93
  C 224.19 1547.90 229.45 1550.29 234.45 1553.03
  Q 238.53 1555.26 240.97 1557.42
  Q 242.27 1558.58 240.62 1559.12
  L 238.87 1559.70
  A 1.05 0.98 46.9 0 1 238.13 1559.65
  Q 232.80 1557.14 227.81 1554.03
  C 225.18 1552.40 220.69 1548.31 217.23 1547.29
  C 214.57 1546.50 213.72 1545.58 211.71 1544.49
  Q 191.86 1533.81 172.61 1522.07
  C 166.15 1518.14 158.17 1514.27 153.05 1511.19
  C 147.87 1508.07 149.00 1504.11 149.00 1499.03
  Q 148.99 1440.40 149.01 1381.78
  C 149.01 1372.92 149.60 1359.92 149.13 1349.68
  C 148.83 1343.15 158.04 1338.88 163.01 1336.42
  C 172.56 1331.70 181.13 1326.12 190.90 1321.11
  C 196.09 1318.45 201.61 1314.75 205.74 1312.39
  Q 233.62 1296.44 261.20 1280.02
  L 266.84 1280.77
  A 1.00 0.97 -65.3 0 0 267.74 1280.42
  Q 269.00 1278.91 268.05 1277.13
  A 0.96 0.96 0.0 0 0 267.53 1276.67
  Q 263.49 1275.11 260.50 1272.04
  L 269.05 1275.74
  A 1.00 0.99 -52.6 0 0 270.07 1275.60
  Q 279.73 1267.86 291.53 1263.28
  C 295.30 1261.81 315.96 1275.55 319.90 1277.65
  C 340.13 1288.46 353.76 1295.72 370.46 1307.76
  Z"
/>
<path fill="#c6e4a0" d="
  M 368.56 1310.03
  C 376.69 1313.03 386.98 1317.78 393.11 1323.07
  Q 395.62 1325.24 392.58 1326.58
  Q 388.10 1328.55 384.00 1331.21
  C 380.58 1333.42 377.17 1334.83 373.71 1336.75
  Q 370.21 1336.62 367.09 1334.39
  C 360.12 1329.44 351.86 1325.23 344.42 1320.26
  Q 340.53 1317.65 336.83 1315.57
  Q 307.24 1298.84 277.55 1282.27
  C 275.65 1281.21 273.66 1280.87 271.59 1280.48
  Q 269.81 1280.15 271.04 1278.82
  C 275.62 1273.86 281.92 1271.34 290.85 1267.30
  C 291.60 1266.95 292.52 1265.28 293.41 1267.11
  A 1.04 1.04 0.0 0 0 293.93 1267.60
  C 302.56 1271.20 311.29 1277.09 317.75 1280.82
  Q 343.12 1295.47 368.56 1310.03
  Z"
/>
<path fill="#e3f1cf" d="
  M 519.94 1363.81
  C 514.10 1359.25 517.39 1353.62 517.26 1347.69
  Q 516.95 1333.47 516.53 1319.25
  Q 516.47 1317.26 519.65 1312.29
  A 1.00 0.98 3.3 0 1 520.05 1311.94
  Q 526.72 1308.60 532.57 1307.59
  C 539.10 1306.47 551.26 1315.03 556.64 1318.60
  C 573.49 1329.77 591.55 1339.35 609.21 1349.18
  C 629.07 1360.23 652.19 1374.37 665.77 1381.97
  Q 678.06 1388.85 686.96 1394.73
  C 689.57 1396.45 694.06 1397.98 696.50 1401.36
  C 699.72 1405.83 699.25 1413.37 697.75 1418.40
  A 1.01 0.98 -7.6 0 1 697.30 1418.97
  C 689.69 1423.46 682.45 1429.05 674.52 1432.78
  C 666.95 1436.35 656.63 1442.59 648.71 1438.76
  C 632.35 1430.84 617.16 1421.06 601.45 1411.97
  C 590.29 1405.52 577.84 1397.28 567.05 1391.46
  C 551.26 1382.94 534.10 1374.88 519.94 1363.81
  Z"
/>
<path fill="#e3f1cf" d="
  M 434.42 1507.03
  Q 433.68 1508.09 432.66 1508.90
  C 424.06 1515.73 414.29 1523.70 403.50 1526.43
  C 395.91 1528.35 393.00 1532.57 386.60 1535.64
  C 385.94 1535.95 381.44 1539.42 382.06 1536.59
  A 1.02 1.01 81.9 0 1 382.55 1535.93
  C 390.02 1531.66 395.78 1527.02 403.35 1522.63
  C 410.16 1518.67 418.21 1513.12 426.69 1509.46
  Q 429.40 1508.29 431.71 1506.06
  A 0.99 0.98 68.8 0 0 432.02 1505.34
  C 432.15 1460.41 431.60 1415.48 432.18 1370.57
  A 0.81 0.80 0.4 0 1 432.99 1369.78
  L 433.33 1369.78
  A 1.00 1.00 0.0 0 1 434.33 1370.73
  C 434.44 1372.95 434.72 1375.30 434.72 1377.43
  Q 434.88 1436.93 434.43 1496.44
  C 434.41 1498.57 432.63 1505.20 436.18 1504.81
  A 0.67 0.64 61.5 0 1 436.68 1504.97
  C 437.70 1505.87 435.21 1506.50 434.81 1506.70
  Q 434.57 1506.81 434.42 1507.03
  Z"
/>
<path fill="#d4ebb8" d="
  M 57.54 1458.86
  A 1.00 0.95 -76.0 0 1 57.20 1458.26
  Q 55.01 1445.29 56.17 1431.75
  Q 56.44 1428.50 57.05 1427.10
  A 1.01 1.01 0.0 0 1 57.59 1426.56
  Q 66.21 1423.06 75.28 1416.77
  C 82.10 1412.03 87.20 1415.22 93.70 1418.64
  A 0.94 0.94 0.0 0 1 94.12 1419.06
  Q 96.40 1423.42 100.99 1424.22
  C 108.01 1425.44 108.02 1427.00 108.01 1433.72
  Q 107.98 1446.74 107.61 1460.19
  A 1.00 0.98 -19.4 0 1 107.25 1460.93
  C 105.42 1462.44 102.40 1462.46 100.21 1463.86
  C 95.22 1467.05 83.55 1475.76 77.07 1471.61
  C 70.88 1467.65 63.57 1463.91 57.54 1458.86
  Z
  M 58.58 1456.74
  C 60.48 1459.23 63.26 1461.49 66.15 1463.13
  C 71.18 1465.98 76.08 1469.29 81.10 1471.56
  A 1.01 1.00 -43.4 0 0 81.87 1471.58
  Q 91.06 1468.07 99.06 1462.45
  C 100.98 1461.10 103.04 1461.16 105.17 1460.65
  A 1.01 0.99 -7.3 0 0 105.94 1459.67
  L 105.70 1427.78
  A 1.01 1.00 -2.2 0 0 104.62 1426.79
  C 91.21 1427.78 89.63 1412.87 74.67 1421.43
  Q 67.32 1425.63 59.22 1427.75
  A 1.00 1.00 0.0 0 0 58.47 1428.65
  Q 57.47 1442.42 58.37 1456.20
  A 0.99 0.96 24.7 0 0 58.58 1456.74
  Z"
/>
<path fill="#c6e4a0" d="
  M 66.15 1463.13
  C 63.26 1461.49 60.48 1459.23 58.58 1456.74
  A 0.99 0.96 24.7 0 1 58.37 1456.20
  Q 57.47 1442.42 58.47 1428.65
  A 1.00 1.00 0.0 0 1 59.22 1427.75
  Q 67.32 1425.63 74.67 1421.43
  C 89.63 1412.87 91.21 1427.78 104.62 1426.79
  A 1.01 1.00 -2.2 0 1 105.70 1427.78
  L 105.94 1459.67
  A 1.01 0.99 -7.3 0 1 105.17 1460.65
  C 103.04 1461.16 100.98 1461.10 99.06 1462.45
  Q 91.06 1468.07 81.87 1471.58
  A 1.01 1.00 -43.4 0 1 81.10 1471.56
  C 76.08 1469.29 71.18 1465.98 66.15 1463.13
  Z"
/>
<path fill="#b7df9c" d="
  M 370.24 1504.84
  C 370.80 1518.34 369.66 1533.44 369.83 1545.24
  Q 370.09 1563.50 370.54 1581.75
  Q 370.62 1584.63 370.10 1589.51
  A 0.99 0.99 0.0 0 0 370.67 1590.52
  C 371.90 1591.09 373.06 1591.51 374.21 1592.19
  Q 391.59 1602.58 416.26 1616.23
  C 428.27 1622.86 440.47 1630.60 453.56 1638.02
  Q 464.09 1643.99 474.27 1650.48
  Q 474.22 1674.77 473.95 1699.00
  C 473.89 1704.60 471.70 1706.64 466.87 1709.65
  C 463.08 1712.02 459.30 1714.86 455.56 1716.95
  Q 425.18 1734.01 394.98 1751.40
  C 386.80 1756.12 376.61 1761.00 367.65 1766.24
  C 358.75 1771.44 352.60 1773.62 343.45 1769.11
  Q 330.68 1762.82 318.44 1755.60
  C 297.30 1743.12 275.23 1730.44 261.17 1722.83
  Q 243.85 1713.45 232.78 1706.52
  A 1.00 0.99 16.7 0 1 232.31 1705.66
  Q 233.16 1633.88 232.66 1576.51
  C 232.63 1572.40 232.70 1569.46 232.59 1565.61
  Q 232.41 1559.59 238.65 1560.31
  Q 240.87 1560.57 242.78 1561.72
  C 249.44 1565.76 255.62 1570.71 262.36 1574.07
  C 266.11 1575.93 269.38 1577.45 273.15 1579.82
  C 278.30 1583.04 284.05 1585.00 289.02 1588.37
  C 293.64 1591.51 296.61 1588.98 301.46 1586.05
  C 312.84 1579.18 322.22 1573.70 335.95 1565.95
  C 338.71 1564.40 342.19 1561.86 345.99 1560.17
  Q 354.50 1556.39 361.96 1550.76
  Q 363.83 1549.36 364.01 1547.18
  Q 364.22 1544.71 362.36 1546.34
  Q 358.41 1549.79 353.84 1552.13
  C 346.31 1555.98 339.01 1560.32 331.66 1564.48
  Q 317.68 1572.40 303.62 1580.18
  C 300.05 1582.15 297.19 1585.11 293.84 1587.59
  A 1.00 0.99 43.2 0 1 292.69 1587.62
  C 284.78 1582.37 275.27 1577.86 268.22 1573.50
  Q 256.53 1566.27 244.82 1559.10
  A 1.00 1.00 0.0 0 1 244.65 1557.53
  Q 246.95 1555.28 250.51 1553.26
  Q 279.36 1536.78 297.02 1527.02
  C 306.91 1521.55 316.49 1515.01 326.68 1509.82
  Q 340.42 1502.82 353.79 1495.08
  A 1.00 1.00 0.0 0 1 354.96 1495.21
  Q 361.40 1501.02 370.24 1504.84
  Z"
/>
<path fill="#d4ebb8" d="
  M 975.30 1558.73
  C 975.56 1577.41 975.64 1596.07 976.03 1614.75
  C 976.27 1626.20 968.86 1633.18 959.80 1638.80
  Q 933.33 1655.21 911.98 1665.03
  Q 906.86 1667.38 900.58 1666.30
  C 896.46 1665.59 894.02 1662.20 890.44 1660.25
  Q 885.33 1657.47 880.39 1654.39
  C 870.25 1648.05 860.01 1641.90 849.79 1635.70
  C 843.58 1631.94 836.78 1632.45 836.71 1622.69
  C 836.53 1599.46 837.71 1575.32 835.62 1552.26
  C 835.36 1549.32 836.46 1547.50 839.21 1546.19
  Q 844.46 1543.70 849.39 1540.65
  C 864.63 1531.20 880.15 1522.23 895.24 1512.52
  Q 899.44 1509.81 903.81 1507.34
  A 1.01 0.99 43.2 0 1 904.75 1507.32
  Q 929.97 1520.16 954.31 1534.94
  Q 964.47 1541.10 966.52 1542.22
  C 973.30 1545.92 975.18 1550.83 975.30 1558.73
  Z"
/>
</svg>
