<?xml version="1.0" standalone="no"?>
<!DOCTYPE svg PUBLIC "-//W3C//DTD SVG 20010904//EN"
 "http://www.w3.org/TR/2001/REC-SVG-20010904/DTD/svg10.dtd">
<svg version="1.0" xmlns="http://www.w3.org/2000/svg"
 width="700.000000pt" height="700.000000pt" viewBox="0 0 700.000000 700.000000"
 preserveAspectRatio="xMidYMid meet">
<metadata>
Created by potrace 1.14, written by Peter Selinger 2001-2017
</metadata>
<g transform="translate(0.000000,700.000000) scale(0.100000,-0.100000)"
fill="#000000" stroke="none">
<path d="M1448 6695 c-2 -1 -55 -5 -118 -9 -181 -9 -316 -44 -475 -122 -52
-26 -95 -50 -95 -54 0 -4 46 -15 103 -24 103 -18 118 -21 160 -32 12 -3 33 -7
47 -10 57 -12 236 -77 298 -108 38 -19 124 -72 193 -119 69 -46 138 -87 154
-91 l28 -7 -38 -26 c-33 -22 -72 -38 -124 -48 -24 -5 -172 -55 -208 -71 -18
-8 -50 -21 -70 -30 -56 -24 -183 -96 -183 -105 0 -3 30 -10 68 -14 101 -11
146 -16 148 -18 1 -1 -43 -38 -99 -82 -190 -151 -337 -312 -337 -369 0 -11 8
-12 34 -6 81 18 154 -2 126 -35 -7 -8 -10 -24 -7 -36 4 -14 -9 -41 -40 -87
-98 -142 -171 -336 -196 -523 -11 -80 -15 -321 -6 -355 2 -5 -8 -31 -23 -59
-71 -139 -61 -306 25 -449 20 -33 34 -63 31 -68 -11 -17 -69 -280 -78 -353 -2
-17 -7 -41 -10 -55 -3 -14 -8 -47 -12 -75 -3 -27 -7 -61 -9 -75 -20 -158 -21
-287 -1 -380 9 -43 13 -106 10 -185 l-4 -120 81 80 c70 70 79 76 72 50 -9 -34
-10 -222 -1 -231 3 -3 23 3 45 14 86 44 89 35 13 -34 -136 -126 -262 -258
-306 -323 -24 -36 -42 -66 -41 -67 1 -1 38 -5 82 -9 203 -17 206 -19 108 -65
-148 -69 -240 -144 -337 -275 l-45 -60 41 -12 c22 -7 45 -10 49 -7 19 12 6
-14 -60 -115 -38 -58 -84 -135 -103 -171 -20 -36 -49 -90 -65 -120 -64 -119
-179 -423 -198 -522 -3 -13 -9 -45 -14 -73 -21 -108 -30 -229 -17 -242 9 -10
5997 -11 6017 -1 17 7 89 171 108 243 13 51 16 69 40 240 23 161 26 197 46
440 10 129 23 378 24 488 1 67 13 68 41 3 17 -36 20 -38 27 -21 9 22 9 457 1
550 l-6 59 48 -93 c27 -52 58 -103 69 -115 l21 -20 1 24 c0 14 2 34 4 45 10
52 22 207 24 319 1 61 6 69 15 26 14 -74 67 -294 71 -299 3 -2 6 1 6 7 1 7 2
15 3 20 18 80 33 133 56 207 47 147 58 208 75 425 11 136 5 506 -10 588 -3 20
1 37 14 53 10 13 28 44 39 69 62 137 62 271 0 397 -21 42 -28 70 -24 87 7 29
9 250 2 286 -3 14 -7 44 -10 67 -13 110 -71 286 -134 403 -43 80 -63 109 -125
183 -27 31 -44 58 -38 58 6 1 14 2 19 3 4 1 23 5 43 9 53 11 89 48 83 84 -11
62 -123 221 -265 377 l-27 29 41 21 c76 38 85 93 27 160 -44 49 -115 92 -253
151 -66 29 -123 57 -125 63 -6 18 60 75 119 104 66 32 153 61 396 133 104 31
220 68 258 82 86 32 190 95 190 114 0 32 -211 115 -340 134 -22 3 -51 8 -65
10 -149 25 -535 25 -680 1 -14 -3 -43 -7 -65 -11 -36 -5 -127 -20 -180 -30
-46 -8 -164 -35 -220 -50 -198 -53 -209 -54 -315 -50 -150 5 -193 12 -305 50
-55 19 -127 37 -160 40 -33 3 -72 8 -87 11 -38 8 -356 7 -450 -1 -56 -4 -94
-1 -140 11 -35 9 -76 18 -93 20 -16 2 -46 6 -65 9 -41 6 -266 7 -295 1 -11 -2
-45 -7 -75 -11 -83 -10 -232 -37 -428 -79 -156 -33 -217 -33 -307 0 -256 93
-674 202 -880 229 -27 4 -61 9 -75 11 -14 2 -74 7 -135 10 -60 3 -118 7 -127
8 -9 2 -18 3 -20 1z"/>
</g>
</svg>
